<svg height="512" viewBox="0 0 64 64" width="512" xmlns="http://www.w3.org/2000/svg"><g id="ambulance-hospital-service-virus-corona"><path d="m47 13a3.995 3.995 0 1 1 -1.17-2.83 4.025 4.025 0 0 1 1.17 2.83z" fill="#bddbff"/><path d="m61 45v10a2.006 2.006 0 0 1 -2 2h-2a4 4 0 0 0 -8 0h-9a4 4 0 0 0 -8 0h-1a2.006 2.006 0 0 1 -2-2v-9.23a1.833 1.833 0 0 1 .16-.77 1.866 1.866 0 0 1 .35-.57l7.89-8.77a2.007 2.007 0 0 1 1.49-.66h2.11v10z" fill="#bddbff"/><path d="m7 23h10v6h-10z" fill="#bddbff"/><g fill="#57a4ff"><path d="m46 48h-2v2h-2v2h2v2h2v-2h2v-2h-2z"/><path d="m10.5 55h15.5v2h-15.5a6.5 6.5 0 0 1 0-13h11.5a3 3 0 0 0 0-6h-9a2.006 2.006 0 0 1 -2-2v-4h2v4h9a5 5 0 0 1 0 10h-11.5a4.5 4.5 0 0 0 0 9z"/><path d="m21 2h-18a1 1 0 0 0 -1 1v26a1 1 0 0 0 1 1h18a1 1 0 0 0 1-1v-26a1 1 0 0 0 -1-1zm-5 26h-8v-4h8zm4 0h-2v-5a1 1 0 0 0 -1-1h-10a1 1 0 0 0 -1 1v5h-2v-24h16z"/><path d="m11 12h2v-2h2v-2h-2v-2h-2v2h-2v2h2z"/><path d="m6 14h4v2h-4z"/><path d="m14 14h4v2h-4z"/><path d="m6 18h4v2h-4z"/><path d="m14 18h4v2h-4z"/><path d="m59 34h-13v-1a3 3 0 0 0 -6 0v1h-1.11a3.008 3.008 0 0 0 -2.23.99l-7.9 8.77a3.047 3.047 0 0 0 -.76 2.01v9.23a3.009 3.009 0 0 0 3 3h.1a5 5 0 0 0 9.8 0h7.2a5 5 0 0 0 9.8 0h1.1a3.009 3.009 0 0 0 3-3v-18a3.009 3.009 0 0 0 -3-3zm-17-1a1 1 0 0 1 2 0v1h-2zm-3.86 3.33a1.006 1.006 0 0 1 .75-.33h1.11v8h-8.76zm-2.14 23.67a3 3 0 1 1 3-3 3.009 3.009 0 0 1 -3 3zm17 0a3 3 0 1 1 3-3 3.009 3.009 0 0 1 -3 3zm7-5a1 1 0 0 1 -1 1h-1.1a5 5 0 0 0 -9.8 0h-7.2a5 5 0 0 0 -9.8 0h-.1a1 1 0 0 1 -1-1v-9h30zm0-11h-18v-8h17a1 1 0 0 1 1 1z"/><path d="m42 26h2v2h-2z"/><path d="m37.757 27.757h2v2h-2z" transform="matrix(.707 -.707 .707 .707 -8.98 35.845)"/><path d="m46.242 27.757h2v2h-2z" transform="matrix(.707 -.707 .707 .707 -6.502 41.81)"/><path d="m42 12h2v2h-2z"/><path d="m52 11a2 2 0 0 0 -1.72 1h-2.38a5.038 5.038 0 0 0 -.73-1.75l1.68-1.69a2.255 2.255 0 0 0 .51.08 2.01 2.01 0 1 0 -1.92-1.49l-1.69 1.68a5.038 5.038 0 0 0 -1.75-.73v-2.38a2 2 0 1 0 -2 0v2.38a5.038 5.038 0 0 0 -1.75.73l-1.69-1.68a1.99 1.99 0 1 0 -1.92 1.49 2.255 2.255 0 0 0 .51-.08l1.68 1.69a5.038 5.038 0 0 0 -.73 1.75h-2.38a2 2 0 1 0 0 2h2.38a5.038 5.038 0 0 0 .73 1.75l-1.68 1.69a2 2 0 1 0 1.41 1.41l1.69-1.68a5.038 5.038 0 0 0 1.75.73v2.38a2 2 0 1 0 2 0v-2.38a5.038 5.038 0 0 0 1.75-.73l1.69 1.68a2 2 0 1 0 1.41-1.41l-1.68-1.69a5.038 5.038 0 0 0 .73-1.75h2.38a2 2 0 1 0 1.72-3zm-9 5a3 3 0 1 1 3-3 3.009 3.009 0 0 1 -3 3z"/></g></g></svg>