<svg height="512" viewBox="0 0 64 64" width="512" xmlns="http://www.w3.org/2000/svg"><g id="check-body-temperature-heat-temperature_measurement" data-name="check-body-temperature-heat-temperature measurement"><circle cx="53" cy="39" fill="#bddbff" r="3"/><path d="m35.43 8.57a18.993 18.993 0 0 0 -32.43 13.43v15h16v-.42a10.924 10.924 0 0 0 6 0v.42h16v-15a18.923 18.923 0 0 0 -5.57-13.43zm1.57 16.43a2.006 2.006 0 0 1 -2 2h-2.05a10.948 10.948 0 0 1 -3.95 7.49v-7.49l-7-2-7 2v7.49a10.948 10.948 0 0 1 -3.95-7.49h-2.05a2.006 2.006 0 0 1 -2-2v-2a2.006 2.006 0 0 1 2-2h2v-4l15-4 4 2.29 3 1.71v4h2a2.006 2.006 0 0 1 2 2z" fill="#bddbff"/><g fill="#57a4ff"><path d="m41 38a1 1 0 0 0 1-1v-15a20 20 0 0 0 -40 0v15a1 1 0 0 0 1 1h15v2h-11a5 5 0 0 0 -5 5v16a1 1 0 0 0 1 1h38a1 1 0 0 0 1-1v-16a5 5 0 0 0 -5-5h-11v-2zm-37-2v-14a18.021 18.021 0 0 1 18-18 18.027 18.027 0 0 1 18 18v14h-11.38a12 12 0 0 0 5.2-8h1.18a3.009 3.009 0 0 0 3-3v-2a3.009 3.009 0 0 0 -3-3h-1v-3a1 1 0 0 0 -.5-.87l-2.5-1.42v-5.71h-2v4.56l-2-1.14v-3.42h-2v3.23l-14.26 3.8a1 1 0 0 0 -.74.97v3h-1a3.009 3.009 0 0 0 -3 3v2a3.009 3.009 0 0 0 3 3h1.18a12 12 0 0 0 5.2 8zm26-4.03v-4.67l2-3v1.7a9.9 9.9 0 0 1 -2 5.97zm4-5.97v-4h1a1 1 0 0 1 1 1v2a1 1 0 0 1 -1 1zm-22-1.7 2 3v4.67a9.9 9.9 0 0 1 -2-5.97zm-2-2.3v4h-1a1 1 0 0 1 -1-1v-2a1 1 0 0 1 1-1zm2-1.3v-2.93l13.86-3.7 6.14 3.51v3.12l-3.43 5.14-6.3-1.8a.991.991 0 0 0 -.54 0l-6.3 1.8zm16.92 21.3h8.08a3.009 3.009 0 0 1 3 3v15h-36v-15a3.009 3.009 0 0 1 3-3h8.08a6.991 6.991 0 0 0 13.84 0zm-2.02 0a5 5 0 0 1 -9.8 0h1.9a1 1 0 0 0 1-1v-3.18a11.2 11.2 0 0 0 4 0v3.18a1 1 0 0 0 1 1zm-4.9-6a9.943 9.943 0 0 1 -6-2.02v-6.23l6-1.71 6 1.71v6.23a9.943 9.943 0 0 1 -6 2.02z"/><path d="m18 21a1 1 0 0 1 1 1h2a3 3 0 0 0 -6 0h2a1 1 0 0 1 1-1z"/><path d="m26 21a1 1 0 0 1 1 1h2a3 3 0 0 0 -6 0h2a1 1 0 0 1 1-1z"/><path d="m59 32.3v-24.3a6 6 0 0 0 -12 0v24.3a9 9 0 1 0 12 0zm-6 13.7a7 7 0 0 1 -4.374-12.459 1 1 0 0 0 .374-.78v-2.761h2v-2h-2v-2h4v-2h-4v-2h2v-2h-2v-2h4v-2h-4v-2h2v-2h-2v-2h4v-2h-4a4 4 0 0 1 8 0v24.761a1 1 0 0 0 .374.78 7 7 0 0 1 -4.374 12.459z"/><path d="m53 35a4 4 0 1 0 4 4 4 4 0 0 0 -4-4zm0 6a2 2 0 1 1 2-2 2 2 0 0 1 -2 2z"/></g></g></svg>