<svg height="512" viewBox="0 0 64 64" width="512" xmlns="http://www.w3.org/2000/svg"><g id="doctor-physician-medico-care-secure"><path d="m32 3a12 12 0 0 0 -12 12h24a11.984 11.984 0 0 0 -12-12z" fill="#bddbff"/><path d="m32 35a11.969 11.969 0 0 0 12-12h-24a11.969 11.969 0 0 0 12 12z" fill="#bddbff"/><circle cx="21" cy="53" fill="#bddbff" r="4"/><g fill="#57a4ff"><path d="m26 18h4v2h-4z"/><path d="m34 18h4v2h-4z"/><path d="m52 40h-7v-1a3.009 3.009 0 0 0 -3-3h-4v-1.48a13.013 13.013 0 0 0 7-11.52v-8a13 13 0 0 0 -26 0v8a13.013 13.013 0 0 0 7 11.52v1.48h-3a3.009 3.009 0 0 0 -3 3v1h-8a5 5 0 0 0 -5 5v16a1 1 0 0 0 1 1h48a1 1 0 0 0 1-1v-16a5 5 0 0 0 -5-5zm-10-2a1 1 0 0 1 1 1v1h-5v-2zm-10-34a11.011 11.011 0 0 1 10.95 10h-21.9a11.011 11.011 0 0 1 10.95-10zm-11 12h22v6h-22zm.05 8h21.9a11 11 0 0 1 -21.9 0zm.95 15a1 1 0 0 1 1-1h3v2h-4zm-1 11a3 3 0 1 1 -3 3 3.009 3.009 0 0 1 3-3zm10 10h-22v-15a3.009 3.009 0 0 1 3-3h8v6.1a5 5 0 1 0 2 0v-6.1h4.35a5.933 5.933 0 0 0 4.65 3.91zm-1.83-17.16a4.045 4.045 0 0 1 -1.17-2.84v-4.64a12.82 12.82 0 0 0 8 0v4.64a4.009 4.009 0 0 1 -6.83 2.84zm25.83 17.16h-22v-14.09a6.029 6.029 0 0 0 4.65-3.91h5.35v4h-3a3.009 3.009 0 0 0 -3 3v7a1 1 0 0 0 1 1h2v1h2v-4h-2v1h-1v-6a1 1 0 0 1 1-1h8a1 1 0 0 1 1 1v6h-1v-1h-2v4h2v-1h2a1 1 0 0 0 1-1v-7a3.009 3.009 0 0 0 -3-3h-3v-4h7a3.009 3.009 0 0 1 3 3z"/><path d="m20 52h2v2h-2z"/><path d="m31 12h2v-2h2v-2h-2v-2h-2v2h-2v2h2z"/></g></g></svg>