<svg height="512" viewBox="0 0 64 64" width="512" xmlns="http://www.w3.org/2000/svg"><g id="face_mask-social_distancing-protection-protect-face_shield" data-name="face mask-social distancing-protection-protect-face shield"><g fill="#bddbff"><path d="m49 29a9 9 0 0 0 -9 9v1h2l9-4 5 4h2v-1a9.014 9.014 0 0 0 -9-9z"/><path d="m42 44a5.365 5.365 0 0 0 .08.99 6.995 6.995 0 0 0 13.92-.99l-7-2z"/><path d="m52.56 21 .44 2-21 2-21-2 .44-2 1.56-7-1.43-5-.57-2 21-4 21 4-.57 2-1.43 5z"/><path d="m24 38v1h-2l-7-4-7 4h-2v-1a9 9 0 0 1 18 0z"/><path d="m8 44a7 7 0 0 0 14 0l-7-2z"/></g><path d="m55 50h-.73a8.006 8.006 0 0 0 2.66-5h.07a3.009 3.009 0 0 0 3-3 2.973 2.973 0 0 0 -1.22-2.4.981.981 0 0 0 .22-.6v-1a10 10 0 0 0 -20 0v1a1 1 0 0 0 1 1h1a3 3 0 0 0 0 6h.26a8 8 0 0 0 2.47 4h-.73a7.008 7.008 0 0 0 -7 7v4a1 1 0 0 0 1 1h24a1 1 0 0 0 1-1v-4a7.008 7.008 0 0 0 -7-7zm-14-6a1 1 0 0 1 0-2zm17-2a1 1 0 0 1 -1 1v-2a1 1 0 0 1 1 1zm-17-4a8 8 0 0 1 16 0h-.65l-4.73-3.78a.985.985 0 0 0 -1.03-.13l-8.8 3.91zm2 1.65 7.85-3.49 4.15 3.32v3.19l-5.73-1.63a.991.991 0 0 0 -.54 0l-5.73 1.63zm.05 5.09 5.95-1.7 5.95 1.7a6 6 0 0 1 -11.9 0zm16.95 15.26h-22v-3a5 5 0 0 1 5-5h12a5 5 0 0 1 5 5z" fill="#57a4ff"/><path d="m21 50h-.73a8.006 8.006 0 0 0 2.66-5h.07a3.009 3.009 0 0 0 3-3 2.973 2.973 0 0 0 -1.22-2.4.981.981 0 0 0 .22-.6v-1a10 10 0 0 0 -20 0v1a.981.981 0 0 0 .22.6 2.973 2.973 0 0 0 -1.22 2.4 3.009 3.009 0 0 0 3 3h.07a8.006 8.006 0 0 0 2.66 5h-.73a7.008 7.008 0 0 0 -7 7v4a1 1 0 0 0 1 1h24a1 1 0 0 0 1-1v-4a7.008 7.008 0 0 0 -7-7zm3-8a1 1 0 0 1 -1 1v-2a1 1 0 0 1 1 1zm-17 1a1 1 0 0 1 0-2zm0-5a8 8 0 0 1 16 0h-.73l-6.77-3.87a1.044 1.044 0 0 0 -1 0l-6.77 3.87zm2 1.58 6-3.43 6 3.43v3.09l-5.73-1.63a.991.991 0 0 0 -.54 0l-5.73 1.63zm.05 5.16 5.95-1.7 5.95 1.7a6 6 0 0 1 -11.9 0zm16.95 15.26h-22v-3a5 5 0 0 1 5-5h12a5 5 0 0 1 5 5z" fill="#57a4ff"/><path d="m61 8h-7.25l.21-.73a.953.953 0 0 0 -.11-.79 1 1 0 0 0 -.66-.46l-21-4a.813.813 0 0 0 -.38 0l-21 4a1 1 0 0 0 -.66.46.953.953 0 0 0 -.11.79l.21.73h-7.25a1 1 0 0 0 -1 1v12a1 1 0 0 0 1 1h7.2l-.18.78a1.014 1.014 0 0 0 .17.81 1.025 1.025 0 0 0 .72.41l21 2h.18l21-2a1.025 1.025 0 0 0 .72-.41 1.014 1.014 0 0 0 .17-.81l-.18-.78h7.2a1 1 0 0 0 1-1v-12a1 1 0 0 0 -1-1zm-50.36 12h-6.64v-10h6.82l1.15 4.03zm21.36 4-19.78-1.89 1.76-7.89a1.013 1.013 0 0 0 -.02-.49l-1.7-5.95 19.74-3.76 19.74 3.76-1.7 5.95a1.013 1.013 0 0 0 -.02.49l1.76 7.89zm28-4h-6.64l-1.33-5.97 1.15-4.03h6.82z" fill="#57a4ff"/><path d="m16 10h32v2h-32z" fill="#57a4ff"/><path d="m16 16h32v2h-32z" fill="#57a4ff"/></g></svg>