<svg height="512" viewBox="0 0 64 64" width="512" xmlns="http://www.w3.org/2000/svg"><g id="face_shield-masked-face_mask-hat-human" data-name="face shield-masked-face mask-hat-human"><rect fill="#bddbff" height="6" rx="2" width="48" x="8" y="18"/><path d="m32 30-15.51 1.94a16 16 0 0 0 31.02 0zm-6 8a2 2 0 1 1 2-2 2.006 2.006 0 0 1 -2 2zm12 0a2 2 0 1 1 2-2 2.006 2.006 0 0 1 -2 2z" fill="#bddbff"/><path d="m20.56 3a1.992 1.992 0 0 0 -1.94 1.51l-1.62 6.49h30l-1.62-6.49a1.992 1.992 0 0 0 -1.94-1.51z" fill="#bddbff"/><g fill="#57a4ff"><path d="m57.82 49.46-9.15-1.53a4.984 4.984 0 0 0 4.33-4.93v-18h1a3.009 3.009 0 0 0 3-3v-2a3.009 3.009 0 0 0 -3-3h-1.49l-4.59-6.43-1.57-6.3a3 3 0 0 0 -2.91-2.27h-22.88a3 3 0 0 0 -2.91 2.27l-1.57 6.3-4.59 6.43h-1.49a3.009 3.009 0 0 0 -3 3v2a3.009 3.009 0 0 0 3 3h1v18a4.984 4.984 0 0 0 4.33 4.93l-9.15 1.53a4.978 4.978 0 0 0 -4.18 4.93v6.61a1 1 0 0 0 1 1h58a1 1 0 0 0 1-1v-6.61a4.978 4.978 0 0 0 -4.18-4.93zm-38.23-44.7a1 1 0 0 1 .97-.76h22.88a1 1 0 0 1 .97.76l1.31 5.24h-27.44zm-2.08 7.24h28.98l3.57 5h-36.12zm-7.51 11a1 1 0 0 1 -1-1v-2a1 1 0 0 1 1-1h44a1 1 0 0 1 1 1v2a1 1 0 0 1 -1 1zm22.12 6.01a.964.964 0 0 0 -.24 0l-14.6 1.82a14.6 14.6 0 0 1 -.28-2.83v-3h30v3a14.6 14.6 0 0 1 -.28 2.83zm14.08 3.77a15 15 0 0 1 -13.2 10.17v-11.82zm-15.2-1.65v11.82a15 15 0 0 1 -13.2-10.17zm-18 11.87v-18h2v3a17 17 0 0 0 34 0v-3h2v18a3.009 3.009 0 0 1 -3 3h-32a3.009 3.009 0 0 1 -3-3zm23 5v3a1 1 0 0 1 -1 1h-6a1 1 0 0 1 -1-1v-3zm24 12h-56v-5.61a2.988 2.988 0 0 1 2.51-2.96l19.49-3.25v2.82a3.009 3.009 0 0 0 3 3h6a3.009 3.009 0 0 0 3-3v-2.82l19.49 3.25a2.988 2.988 0 0 1 2.51 2.96z"/><path d="m26 39a3 3 0 1 0 -3-3 3 3 0 0 0 3 3zm0-4a1 1 0 1 1 -1 1 1 1 0 0 1 1-1z"/><path d="m38 33a3 3 0 1 0 3 3 3 3 0 0 0 -3-3zm0 4a1 1 0 1 1 1-1 1 1 0 0 1 -1 1z"/><path d="m23 27h5v2h-5z"/><path d="m36 27h5v2h-5z"/></g></g></svg>