<svg height="512" viewBox="0 0 64 64" width="512" xmlns="http://www.w3.org/2000/svg"><g id="face_shield-masked-face_mask-mask-masking" data-name="face shield-masked-face mask-mask-masking"><path d="m43.32 7.68a16.015 16.015 0 0 0 -25.71 4.32h28.78a16.314 16.314 0 0 0 -3.07-4.32z" fill="#bddbff"/><path d="m32 38a12 12 0 0 0 11.96-11h-23.92a12 12 0 0 0 11.96 11z" fill="#bddbff"/><g fill="#57a4ff"><path d="m26 21h4v2h-4z"/><path d="m34 21h4v2h-4z"/><path d="m37 51h6v2h-6z"/><path d="m21 51h6v2h-6z"/><path d="m52.08 43.33-6.8-1.52a4.989 4.989 0 0 0 3.72-4.81v-18h1a3.009 3.009 0 0 0 3-3v-2a3.009 3.009 0 0 0 -3-3h-3.01a17.373 17.373 0 0 0 -2.96-4.03 17.008 17.008 0 0 0 -27.02 4.03h-3.01a3.009 3.009 0 0 0 -3 3v2a3.009 3.009 0 0 0 3 3h1v18a4.989 4.989 0 0 0 3.72 4.81l-6.8 1.52a4.968 4.968 0 0 0 -3.92 4.88v12.79a1 1 0 0 0 1 1h46a1 1 0 0 0 1-1v-12.79a4.968 4.968 0 0 0 -3.92-4.88zm-20.08-39.33a14.975 14.975 0 0 1 10.61 4.38 15.294 15.294 0 0 1 2.07 2.62h-25.36a14.855 14.855 0 0 1 12.68-7zm-18 13a1 1 0 0 1 -1-1v-2a1 1 0 0 1 1-1h36a1 1 0 0 1 1 1v2a1 1 0 0 1 -1 1zm7 9v-4.33l6.49-2.67h13.1l2.41 2.41v4.59zm21.81 2a10.992 10.992 0 0 1 -21.62 0zm-25.81 9v-18h5.23l-2.61 1.08a.992.992 0 0 0 -.62.92v5a13 13 0 0 0 26 0v-5a1.033 1.033 0 0 0 -.29-.71l-1.3-1.29h3.59v18a3.009 3.009 0 0 1 -3 3h-24a3.009 3.009 0 0 1 -3-3zm19 5v3a1 1 0 0 1 -1 1h-6a1 1 0 0 1 -1-1v-3zm-5 18h-13v-7h-2v7h-6v-11.79a2.987 2.987 0 0 1 2.35-2.93l13.65-3.03v2.75a3.009 3.009 0 0 0 3 3h2zm23 0h-6v-7h-2v7h-13v-12h2a3.009 3.009 0 0 0 3-3v-2.75l13.65 3.03a2.987 2.987 0 0 1 2.35 2.93z"/></g></g></svg>