<svg height="512" viewBox="0 0 64 64" width="512" xmlns="http://www.w3.org/2000/svg"><g id="face_shield-masked-face_mask-shield-human" data-name="face shield-masked-face mask-shield-human"><path d="m11 19h42v-.4a16 16 0 0 0 -17.52-15.93l-3.48.33-3.48-.33a16 16 0 0 0 -17.52 15.93z" fill="#bddbff"/><path d="m32 35-20.79 1.98a21 21 0 0 0 41.58 0z" fill="#bddbff"/><g fill="#57a4ff"><path d="m59 18h-5.03a16.969 16.969 0 0 0 -18.58-16.33l-3.39.33-3.38-.33a16.97 16.97 0 0 0 -18.59 16.33h-5.03a3.009 3.009 0 0 0 -3 3v2a3.009 3.009 0 0 0 3 3h1v30a6 6 0 0 0 6 6h40a6 6 0 0 0 6-6v-30h1a3.009 3.009 0 0 0 3-3v-2a3.009 3.009 0 0 0 -3-3zm-42.09-10.51a15 15 0 0 1 11.52-3.82l3.48.33h.18l3.49-.33a14.949 14.949 0 0 1 16.39 14.33h-39.94a15.056 15.056 0 0 1 4.88-10.51zm7.09 52.51h-12a4 4 0 0 1 -4-4v-30h2v8a22.029 22.029 0 0 0 14 20.49zm8.09-26h-.18l-19.81 1.89c-.06-.62-.1-1.25-.1-1.89v-8h40v8c0 .64-.04 1.27-.1 1.89zm19.53 3.87a20.03 20.03 0 0 1 -18.62 16.08v-17.85zm-20.62-1.77v17.85a20.03 20.03 0 0 1 -18.62-16.08zm7 23.9h-12v-4.84a21.849 21.849 0 0 0 12 0zm18-4a4 4 0 0 1 -4 4h-12v-5.51a22.029 22.029 0 0 0 14-20.49v-8h2zm4-33a1 1 0 0 1 -1 1h-54a1 1 0 0 1 -1-1v-2a1 1 0 0 1 1-1h54a1 1 0 0 1 1 1z"/><path d="m20 32a3 3 0 0 1 6 0h2a5 5 0 0 0 -10 0z"/><path d="m41 29a3 3 0 0 1 3 3h2a5 5 0 0 0 -10 0h2a3 3 0 0 1 3-3z"/></g></g></svg>