<svg height="512" viewBox="0 0 64 64" width="512" xmlns="http://www.w3.org/2000/svg"><g id="face_shield-masked-face_mask-staff-human" data-name="face shield-masked-face mask-staff-human"><path d="m50 17a2.015 2.015 0 0 1 -2 2h-32a2.006 2.006 0 0 1 -2-2 2.015 2.015 0 0 1 2-2h32a2.006 2.006 0 0 1 2 2z" fill="#bddbff"/><path d="m32 42a16 16 0 0 0 15.28-11.23l-15.28-4.77-15.28 4.77a16 16 0 0 0 15.28 11.23z" fill="#bddbff"/><g fill="#57a4ff"><path d="m53.02 49.36-11.32-2.36h2.3a5 5 0 0 0 5-5v-12a6 6 0 0 0 1.72-11.75 3.052 3.052 0 0 0 .28-1.25 2.986 2.986 0 0 0 -2.75-2.97 16.99 16.99 0 0 0 -32.5 0 2.979 2.979 0 0 0 -2.75 2.97 3.052 3.052 0 0 0 .28 1.25 6 6 0 0 0 1.72 11.75v12a5 5 0 0 0 5 5h2.3l-11.32 2.36a5.016 5.016 0 0 0 -3.98 4.89v6.75a1 1 0 0 0 1 1h48a1 1 0 0 0 1-1v-6.75a5.016 5.016 0 0 0 -3.98-4.89zm-6.02-23.36a14.909 14.909 0 0 1 -.43 3.5l-14.27-4.45a.883.883 0 0 0 -.6 0l-14.27 4.45a14.909 14.909 0 0 1 -.43-3.5v-6h30zm-1.03 5.41a14.97 14.97 0 0 1 -27.94 0l13.97-4.36zm7.03-7.41a4 4 0 0 1 -4 4v-8a4 4 0 0 1 4 4zm-21-20a14.97 14.97 0 0 1 14.14 10h-28.29a15 15 0 0 1 14.15-10zm-17 24a4 4 0 0 1 0-8zm1-10a1 1 0 0 1 0-2h32a1 1 0 0 1 0 2zm4 27a3.009 3.009 0 0 1 -3-3v-8.02a16.982 16.982 0 0 0 30 0v8.02a3.009 3.009 0 0 1 -3 3zm35 15h-46v-5.75a3 3 0 0 1 2.39-2.93l20.61-4.3 20.61 4.3a3 3 0 0 1 2.39 2.93z"/><path d="m22 22h6v2h-6z"/><path d="m36 22h6v2h-6z"/><path d="m31 12h2v-2h2v-2h-2v-2h-2v2h-2v2h2z"/></g></g></svg>