<svg height="512" viewBox="0 0 64 64" width="512" xmlns="http://www.w3.org/2000/svg"><g id="man-face_shield-masked-face_mask-protect" data-name="man-face shield-masked-face mask-protect"><path d="m61 51v10h-26v-8a4 4 0 0 1 4-4h20a2.006 2.006 0 0 1 2 2z" fill="#bddbff"/><path d="m61 13v14a2.006 2.006 0 0 1 -2 2h-2.55a3.989 3.989 0 0 1 -2.56-.93l-4.89-4.07h2a2.006 2.006 0 0 0 2-2v-2a2.006 2.006 0 0 0 -2-2h-2v-5z" fill="#bddbff"/><path d="m61 7v2h-12v4h-4v-4h-15a3 3 0 0 1 0-6h27a4 4 0 0 1 4 4z" fill="#bddbff"/><path d="m45 19.26v12.3l-5 9.44h-6l-5-12 2.14-5.36 8.86-2.8z" fill="#bddbff"/><g fill="#57a4ff"><path d="m62 27v-20a5 5 0 0 0 -5-5h-27a4 4 0 0 0 -4 4 3.906 3.906 0 0 0 .56 2h-1.56a3.009 3.009 0 0 0 -3 3v34a1 1 0 0 0 1 1h13a5.017 5.017 0 0 0 4.9-4h2.1v6h-4a5 5 0 0 0 -5 5v8a1 1 0 0 0 1 1h26a1 1 0 0 0 1-1v-10a3.009 3.009 0 0 0 -3-3v-18a3.009 3.009 0 0 0 3-3zm-2-15h-10v-2h10zm-30-8h27a3.009 3.009 0 0 1 3 3v1h-30a2 2 0 0 1 0-4zm18 10v3.27l-7 2.21v-2.48a3.009 3.009 0 0 1 3-3zm-2-2v-2h2v2zm0 8 3.15-1h1.85a1 1 0 0 1 1 1v2a1 1 0 0 1 -1 1h-2a.978.978 0 0 0 -.87.54l-.01-.01-2.12 4zm-10 24h-12v-33a1 1 0 0 1 1-1h7v8.81l-3.93 9.82a.975.975 0 0 0 .01.75l5 12a.987.987 0 0 0 .92.62h4.82a3.01 3.01 0 0 1 -2.82 2zm3-4h-4.33l-4.59-11.01 1.82-4.54 7.1-2.24zm0-23v3.11l-6.14 1.94 1.07-2.68a.937.937 0 0 0 .07-.37v-9h10v2a5 5 0 0 0 -5 5zm2 4.57 3-.94v10.68l-3 5.66zm.66 18.43 7.65-14.44 3.94 3.28a4.974 4.974 0 0 0 3.2 1.16h.55v18h-12v-7a1 1 0 0 0 -1-1zm18.34 11v9h-24v-7a3.009 3.009 0 0 1 3-3h20a1 1 0 0 1 1 1zm-3.55-23a3 3 0 0 1 -1.92-.7l-2.86-2.38a3 3 0 0 0 2.33-2.92v-2a3.009 3.009 0 0 0 -3-3h-1v-3h10v13a1 1 0 0 1 -1 1z"/><path d="m2 28h7v2h-7z"/><path d="m11 28h2v2h-2z"/><path d="m15 28h2v2h-2z"/><path d="m1.531 22.25h7v2h-7z" transform="matrix(.866 -.5 .5 .866 -10.949 5.629)"/><path d="m9.66 19h2v2h-2z" transform="matrix(.866 -.5 .5 .866 -8.571 8.008)"/><path d="m13.124 17h2v2h-2z" transform="matrix(.866 -.5 .5 .866 -7.107 9.472)"/><path d="m4.031 31.25h2v7h-2z" transform="matrix(.5 -.866 .866 .5 -27.579 21.732)"/><path d="m9.66 37h2v2h-2z" transform="matrix(.5 -.866 .866 .5 -27.578 28.231)"/><path d="m13.124 39h2v2h-2z" transform="matrix(.5 -.866 .866 .5 -27.579 32.231)"/></g></g></svg>