<svg height="512" viewBox="0 0 64 64" width="512" xmlns="http://www.w3.org/2000/svg"><g id="man-face_shield-masked-face_mask-safeguard" data-name="man-face shield-masked-face mask-safeguard"><path d="m61 47v14h-26v-12a4 4 0 0 1 4-4h20a2.006 2.006 0 0 1 2 2z" fill="#bddbff"/><path d="m45 21v-5h15.96a13.991 13.991 0 0 0 -26.6-5h1.64a5 5 0 0 0 5 5v5z" fill="#bddbff"/><g fill="#57a4ff"><path d="m61.94 15.68a14.988 14.988 0 0 0 -28.19-5.68h-4.75a1 1 0 0 0 -1 1v30a1 1 0 0 0 1 1h8a5.017 5.017 0 0 0 4.9-4h2.1v6h-5a5 5 0 0 0 -5 5v12a1 1 0 0 0 1 1h26a1 1 0 0 0 1-1v-14a3.009 3.009 0 0 0 -3-3h-2v-9.64l1.99-2.38a13.039 13.039 0 0 0 3.01-8.32v-7.66a1.134 1.134 0 0 0 -.06-.32zm-21.94 21.32a3.009 3.009 0 0 1 -3 3h-7v-28h5.08a6.038 6.038 0 0 0 4.92 4.92zm1-23a.983.983 0 0 0 -.97.87 4 4 0 0 1 -3.03-3.87 1 1 0 0 0 -.95-.99 12.984 12.984 0 0 1 20.14-2.2 12.9 12.9 0 0 1 3.64 7.19h-13.83a1 1 0 0 0 -1-1zm3 2v4h-2v-4zm15 30a1 1 0 0 1 1 1v13h-24v-11a3.009 3.009 0 0 1 3-3zm1-22.34a10.973 10.973 0 0 1 -2.55 7.04l-2.22 2.66a1 1 0 0 0 -.23.64v10h-9v-7a1 1 0 0 0 -1-1h-3v-14h3a1 1 0 0 0 1-1h14zm0-4.66h-14v-2h14z"/><path d="m15.707 14.293-1.414 1.414 2.293 2.293h-14.586v2h14.586l-2.293 2.293 1.414 1.414 4-4a1 1 0 0 0 0-1.414z"/><path d="m7.707 27.707-1.414-1.414-4 4a1 1 0 0 0 0 1.414l4 4 1.414-1.414-2.293-2.293h14.586v-2h-14.586z"/></g></g></svg>