<svg height="512" viewBox="0 0 64 64" width="512" xmlns="http://www.w3.org/2000/svg"><g id="masked-mask-face_mask-shield-human" data-name="masked-mask-face mask-shield-human"><path d="m10.2 25.33 13.37-2.82a9.991 9.991 0 0 0 4.34-2.1l4.09-3.41 4.09 3.41a9.991 9.991 0 0 0 4.34 2.1l13.37 2.82.2.04 3 .63v-5.04a18 18 0 0 0 -21.53-17.65l-3.47.69-3.47-.69a18 18 0 0 0 -21.53 17.65v5.04l3-.63z" fill="#bddbff"/><path d="m48 35-16-2-16 2v19.1a22.328 22.328 0 0 0 3.7 3.15 22.053 22.053 0 0 0 23.71.57 22.268 22.268 0 0 0 4.59-3.72z" fill="#bddbff"/><g fill="#57a4ff"><path d="m59.66 27.34a8.249 8.249 0 0 0 -1.68-1.27.254.254 0 0 0 .02-.07v-5.04a18.986 18.986 0 0 0 -22.73-18.63l-3.27.65-3.27-.65a18.986 18.986 0 0 0 -22.73 18.63v5.04a.254.254 0 0 0 .02.07 8.249 8.249 0 0 0 -1.68 1.27 8 8 0 0 0 4.75 13.6 22.991 22.991 0 0 0 45.82 0 8 8 0 0 0 4.75-13.6zm-50.66 11.57a6.007 6.007 0 0 1 -5-5.91 6 6 0 0 1 5-5.91zm6 12.37a20.894 20.894 0 0 1 -4-12.28v-10.39l4 6.67zm32 2.39a20.938 20.938 0 0 1 -30 0v-17.79l15-1.87 15 1.87zm.48-19.74-15.36-1.92a.964.964 0 0 0 -.24 0l-15.36 1.92-4.74-7.91 11.99-2.53a11.1 11.1 0 0 0 4.78-2.31l3.45-2.88 3.45 2.88a11.1 11.1 0 0 0 4.78 2.31l11.99 2.53zm5.52 5.07a20.894 20.894 0 0 1 -4 12.28v-16l4-6.67zm-12.36-17.47a8.974 8.974 0 0 1 -3.91-1.89l-4.09-3.41a1.005 1.005 0 0 0 -1.28 0l-4.09 3.41a8.974 8.974 0 0 1 -3.91 1.89l-15.36 3.24v-3.81a16.992 16.992 0 0 1 20.33-16.67l3.47.69a.9.9 0 0 0 .4 0l3.47-.69a16.992 16.992 0 0 1 20.33 16.67v3.81zm14.36 17.38v-11.82a6 6 0 0 1 5 5.91 6.013 6.013 0 0 1 -5 5.91z"/><path d="m21 40h22v2h-22z"/><path d="m21 46h22v2h-22z"/><path d="m21 52h22v2h-22z"/></g></g></svg>