<svg height="512" viewBox="0 0 64 64" width="512" xmlns="http://www.w3.org/2000/svg"><g id="masked-masking-face_mask-shield-human" data-name="masked-masking-face mask-shield-human"><path d="m10.2 25.33 13.37-2.82a9.991 9.991 0 0 0 4.34-2.1l4.09-3.41 4.09 3.41a9.991 9.991 0 0 0 4.34 2.1l13.33 2.81.24.05 3 .63v-5.04a18 18 0 0 0 -21.53-17.65l-3.47.69-3.47-.69a18 18 0 0 0 -21.53 17.65v5.04l3-.63z" fill="#bddbff"/><path d="m48 33-16-2-16 2v21.1a22 22 0 0 0 32 0zm-16 22a9 9 0 1 1 9-9 9 9 0 0 1 -9 9z" fill="#bddbff"/><circle cx="32" cy="46" fill="#bddbff" r="1"/><g fill="#57a4ff"><path d="m32 36a10 10 0 1 0 10 10 10.011 10.011 0 0 0 -10-10zm0 18a8 8 0 1 1 8-8 8.009 8.009 0 0 1 -8 8z"/><path d="m19 27h9v2h-9z"/><path d="m36 27h9v2h-9z"/><path d="m31 40h2v2h-2z"/><path d="m27.464 41.464h2v2h-2z" transform="matrix(.707 -.707 .707 .707 -21.69 32.565)"/><path d="m26 45h2v2h-2z"/><path d="m27.464 48.536h2v2h-2z" transform="matrix(.707 -.707 .707 .707 -26.69 34.636)"/><path d="m31 50h2v2h-2z"/><path d="m34.536 48.536h2v2h-2z" transform="matrix(.707 -.707 .707 .707 -24.619 39.636)"/><path d="m36 45h2v2h-2z"/><path d="m34.536 41.464h2v2h-2z" transform="matrix(.707 -.707 .707 .707 -19.619 37.565)"/><circle cx="32" cy="46" r="2"/><path d="m59.66 27.34a8.249 8.249 0 0 0 -1.68-1.27.254.254 0 0 0 .02-.07v-5.04a18.986 18.986 0 0 0 -22.73-18.63l-3.27.65-3.27-.65a18.986 18.986 0 0 0 -22.73 18.63v5.04a.254.254 0 0 0 .02.07 8.249 8.249 0 0 0 -1.68 1.27 8 8 0 0 0 4.75 13.6 22.991 22.991 0 0 0 45.82 0 8 8 0 0 0 4.75-13.6zm-50.66 11.57a6.007 6.007 0 0 1 -5-5.91 6 6 0 0 1 5-5.91zm6 12.37a20.894 20.894 0 0 1 -4-12.28v-10.95l4 5.29zm32 2.39a20.938 20.938 0 0 1 -30 0v-19.79l15-1.87 15 1.87zm.55-21.73-15.43-1.93a.964.964 0 0 0 -.24 0l-15.43 1.93-4.5-5.96 11.82-2.49a11.1 11.1 0 0 0 4.78-2.31l3.45-2.88 3.45 2.88a11.1 11.1 0 0 0 4.78 2.31l11.79 2.48zm5.45 7.06a20.894 20.894 0 0 1 -4 12.28v-17.95l4-5.33zm-12.36-17.47a8.974 8.974 0 0 1 -3.91-1.89l-4.09-3.41a1.005 1.005 0 0 0 -1.28 0l-4.09 3.41a8.974 8.974 0 0 1 -3.91 1.89l-15.36 3.24v-3.81a16.992 16.992 0 0 1 20.33-16.67l3.47.69a.9.9 0 0 0 .4 0l3.47-.69a16.992 16.992 0 0 1 20.33 16.67v3.81zm14.36 17.38v-11.82a6 6 0 0 1 5 5.91 6.013 6.013 0 0 1 -5 5.91z"/></g></g></svg>