<svg height="512" viewBox="0 0 64 64" width="512" xmlns="http://www.w3.org/2000/svg"><g id="nurse-care-secure-staff-protect"><path d="m46.25 17.81-2.25-2.81h-24l-2.25 2.81a8.028 8.028 0 0 0 -1.75 5v11.19a4 4 0 0 0 4 4h5.37a10.846 10.846 0 0 0 1.63.92 12.114 12.114 0 0 0 10 0 12.526 12.526 0 0 0 1.64-.92h5.36a4 4 0 0 0 4-4v-11.19a8.028 8.028 0 0 0 -1.75-5zm-2.25 10.19c0 .34-.01.67-.04 1h-23.92c-.03-.33-.04-.66-.04-1v-5l17-4 7 4z" fill="#bddbff"/><g fill="#57a4ff"><path d="m26 24h4v2h-4z"/><path d="m34 24h4v2h-4z"/><path d="m21 54h6v2h-6z"/><path d="m51.86 45.44-13.86-2.41v-3.51c.31-.16.6-.34.9-.52h5.1a5 5 0 0 0 5-5v-11.19a9.048 9.048 0 0 0 -1.97-5.62l-1.88-2.36 3.78-9.46a1.01 1.01 0 0 0 -.07-.88 1.024 1.024 0 0 0 -.74-.48l-16-2a.964.964 0 0 0 -.24 0l-16 2a1.024 1.024 0 0 0 -.74.48 1.01 1.01 0 0 0 -.07.88l3.78 9.46-1.88 2.36a9.048 9.048 0 0 0 -1.97 5.62v11.19a5 5 0 0 0 5 5h5.1c.3.18.59.36.9.52v3.51l-13.86 2.41a4.989 4.989 0 0 0 -4.14 4.92v10.64a1 1 0 0 0 1 1h46a1 1 0 0 0 1-1v-10.64a4.989 4.989 0 0 0 -4.14-4.92zm-34.45-39.61 14.59-1.82 14.59 1.82-3.27 8.17h-22.64zm2.59 31.17a3.009 3.009 0 0 1 -3-3v-11.19a7 7 0 0 1 1.53-4.37l1.95-2.44h23.04l1.95 2.43a7.051 7.051 0 0 1 1.53 4.38v11.19a3.009 3.009 0 0 1 -3 3h-2.64a12.95 12.95 0 0 0 3.64-9v-5a1 1 0 0 0 -.5-.87l-7-4a1.026 1.026 0 0 0 -.73-.1l-17 4a1 1 0 0 0 -.77.97v5a12.95 12.95 0 0 0 3.64 9zm23-9h-22v-4.21l15.85-3.73 6.15 3.52zm-21.81 2h21.62a10.992 10.992 0 0 1 -21.62 0zm14.81 10.36v6.64a1 1 0 0 1 -1 1h-6a1 1 0 0 1 -1-1v-6.64a12.82 12.82 0 0 0 8 0zm-5 19.64h-13v-5h-2v5h-6v-9.64a2.994 2.994 0 0 1 2.49-2.95l13.51-2.35v1.94a3.009 3.009 0 0 0 3 3h2zm23 0h-6v-5h-2v5h-13v-10h2a3.009 3.009 0 0 0 3-3v-1.94l13.51 2.35a2.994 2.994 0 0 1 2.49 2.95z"/><path d="m29 10h2v2h2v-2h2v-2h-2v-2h-2v2h-2z"/><path d="m41 52h-2v2h-2v2h2v2h2v-2h2v-2h-2z"/></g></g></svg>