<svg height="512" viewBox="0 0 64 64" width="512" xmlns="http://www.w3.org/2000/svg"><g id="protect-protection-world-global-hands"><g fill="#bddbff"><path d="m55 8h6v12h-6z"/><path d="m52 34a15.978 15.978 0 0 1 -8 13.85v-1.85a2.015 2.015 0 0 0 -2-2 2.015 2.015 0 0 1 -2-2 2.006 2.006 0 0 0 -2-2h-2a2.006 2.006 0 0 1 -2-2v-4a2.006 2.006 0 0 1 2-2h4a2.006 2.006 0 0 0 2-2v-2a2.006 2.006 0 0 0 -2-2h-2a2.006 2.006 0 0 1 -2-2v-6a14.713 14.713 0 0 1 2 .13 16 16 0 0 1 14 15.87z"/><path d="m34 44h-2a2.006 2.006 0 0 1 -2-2v-6a2.006 2.006 0 0 1 -2-2v-2a2.015 2.015 0 0 1 2-2 2.006 2.006 0 0 0 2-2v-2a2.015 2.015 0 0 0 -2-2 2.006 2.006 0 0 1 -2-2v-1.84a15.993 15.993 0 0 0 6 29.72 16.524 16.524 0 0 0 2 .12v-4a2.006 2.006 0 0 0 -2-2z"/><path d="m3 44h6v12h-6z"/></g><path d="m61 7h-6.69a3.029 3.029 0 0 1 -1.95-.72l-3.59-3.08a5.017 5.017 0 0 0 -3.25-1.2h-33.52a4 4 0 0 0 0 8h18.34a4.112 4.112 0 0 0 .04 1.94 3.987 3.987 0 0 0 1.86 2.43l4.61 2.66a16.2 16.2 0 0 0 -2.97.11 16.973 16.973 0 0 0 -11.4 27.14l-1.05-.61a4.982 4.982 0 0 0 -2.5-.67h-15.93a1 1 0 0 0 -1 1v12a1 1 0 0 0 1 1h6.69a3.029 3.029 0 0 1 1.95.72l3.59 3.08a5.017 5.017 0 0 0 3.25 1.2h33.52a4 4 0 0 0 0-8h-18.34a4.112 4.112 0 0 0 -.04-1.94 3.976 3.976 0 0 0 -.65-1.34c.3.05.6.11.91.15a17.351 17.351 0 0 0 4.24 0 16.987 16.987 0 0 0 8.81-29.87h14.07a1 1 0 0 0 1-1v-12a1 1 0 0 0 -1-1zm-53 48h-4v-10h4zm44 1a2 2 0 0 1 0 4h-33.52a3.009 3.009 0 0 1 -1.95-.72l-3.59-3.08a5.051 5.051 0 0 0 -2.94-1.17v-10.03h8.93a3.062 3.062 0 0 1 1.5.4l10.33 5.97a2 2 0 0 1 .73 2.73 2.006 2.006 0 0 1 -2.73.73l-11.26-6.5-1 1.73 11.26 6.5a3.989 3.989 0 0 0 4.75-.56zm-17-7.03c-.29-.02-.58-.05-.88-.08a14.992 14.992 0 0 1 -7.12-26.87 3 3 0 0 0 3 2.98.949.949 0 0 1 .71.31.928.928 0 0 1 .29.69v2a1 1 0 0 1 -1 1 3 3 0 0 0 -3 3v2a3.014 3.014 0 0 0 2 2.83v5.17a3.009 3.009 0 0 0 3 3h2a1 1 0 0 1 1 1zm8-1.7a14.977 14.977 0 0 1 -5.12 1.62c-.29.03-.59.06-.88.08v-2.97a3.009 3.009 0 0 0 -3-3h-2a1 1 0 0 1 -1-1v-6a1 1 0 0 0 -1-1 1 1 0 0 1 -1-1v-2a.949.949 0 0 1 .31-.71.928.928 0 0 1 .69-.29 3.009 3.009 0 0 0 3-3v-2a3 3 0 0 0 -3-3 1 1 0 0 1 -1-1v-1.26a14.816 14.816 0 0 1 5.13-1.62q.435-.06.87-.09v4.97a3.009 3.009 0 0 0 3 3h2a1 1 0 0 1 1 1v2a1 1 0 0 1 -1 1h-4a3.009 3.009 0 0 0 -3 3v4a3.009 3.009 0 0 0 3 3h2a1 1 0 0 1 1 1 3 3 0 0 0 3 3 .949.949 0 0 1 .71.31.928.928 0 0 1 .29.69zm8-13.27a15.011 15.011 0 0 1 -6 11.99 3 3 0 0 0 -3-2.99.949.949 0 0 1 -.71-.31.928.928 0 0 1 -.29-.69 3.009 3.009 0 0 0 -3-3h-2a1 1 0 0 1 -1-1v-4a1 1 0 0 1 1-1h4a3.009 3.009 0 0 0 3-3v-2a3.009 3.009 0 0 0 -3-3h-2a1 1 0 0 1 -1-1v-4.97c.3.02.59.05.88.09a15.006 15.006 0 0 1 13.12 14.88zm3-15h-8.93a3.062 3.062 0 0 1 -1.5-.4l-10.33-5.97a2 2 0 0 1 -.73-2.73 1.993 1.993 0 0 1 2.73-.73l11.26 6.5 1-1.73-11.26-6.5a3.989 3.989 0 0 0 -4.75.56h-19.49a2 2 0 0 1 0-4h33.52a3.009 3.009 0 0 1 1.95.72l3.59 3.08a5.051 5.051 0 0 0 2.94 1.17zm6 0h-4v-10h4z" fill="#57a4ff"/></g></svg>