<svg height="512" viewBox="0 0 64 64" width="512" xmlns="http://www.w3.org/2000/svg"><g id="safeguard-protect-social_distancing-face_shield-face_mask" data-name="safeguard-protect-social distancing-face shield-face mask"><g fill="#bddbff"><path d="m61 27v34h-14v-6h8v-17h2v-6h-4v-5z"/><path d="m61 21v2h-8v4h-4v-4h-8a2.015 2.015 0 0 1 -2-2 2.006 2.006 0 0 1 2-2h18a2.006 2.006 0 0 1 2 2z"/><path d="m51 32.83v8.17l-4 6h-3l-4-6 1.23-4.1 5.77-2.4z"/><path d="m24 41-4 6h-3l-4-6v-8.17l4 1.67 5.77 2.4z"/><path d="m3 55h12v6h-12z"/><path d="m25 21a2.015 2.015 0 0 1 -2 2h-8v4h-4v-4h-8v-2a2.006 2.006 0 0 1 2-2h18a2.006 2.006 0 0 1 2 2z"/><path d="m3.89 40.59 1.11.74 4 2.67v-6h-2v-6h4v-5h-8v11.93a1.981 1.981 0 0 0 .89 1.66z"/></g><path d="m59 18h-18a2.98 2.98 0 0 0 -2.82 4h-1.18a3.009 3.009 0 0 0 -3 3v26a1 1 0 0 0 1 1h8a5.017 5.017 0 0 0 4.9-4h2.1v6h-3a1 1 0 0 0 -1 1v6a1 1 0 0 0 1 1h14a1 1 0 0 0 1-1v-40a3.009 3.009 0 0 0 -3-3zm-16 32h-7v-25a1 1 0 0 1 1-1h5v6.85l-2.96 9.86a.993.993 0 0 0 .13.84l4 6a1 1 0 0 0 .83.45h1.82a3.01 3.01 0 0 1 -2.82 2zm3-4h-1.46l-3.45-5.16.96-3.2 3.95-1.64zm0-17v4.83l-3.21 1.34 1.17-3.88a.967.967 0 0 0 .04-.29v-7h4v2.18a3.01 3.01 0 0 0 -2 2.82zm6-1v3.33l-4 1.67v-4a1 1 0 0 1 1-1zm-2-2v-2h2v2zm-2 9.17 2-.84v6.37l-2 3zm6 24.83h-6v-4h6zm0-6h-2v-7a1 1 0 0 0 -1-1h-2.13l4.67-7h.46zm-1-17a1 1 0 0 0 -.83.45l-.17.25v-4.2l1.2-.5h2.8v4zm7 23h-4v-21h1a1 1 0 0 0 1-1v-6a1 1 0 0 0 -1-1h-3v-3h6zm0-34h-6v-2h6zm0-4h-19a1 1 0 0 1 0-2h18a1 1 0 0 1 1 1z" fill="#57a4ff"/><path d="m27 22h-1.18a2.98 2.98 0 0 0 -2.82-4h-18a3.009 3.009 0 0 0 -3 3v17.93a3.006 3.006 0 0 0 1.34 2.5l.66.44v12.13h-1a1 1 0 0 0 -1 1v6a1 1 0 0 0 1 1h12a1 1 0 0 0 1-1v-6a1 1 0 0 0 -1-1h-1v-6h2.1a5.017 5.017 0 0 0 4.9 4h8a1 1 0 0 0 1-1v-26a3.009 3.009 0 0 0 -3-3zm-23-1a1 1 0 0 1 1-1h18a1 1 0 0 1 0 2h-19zm10 3v2h-2v-2zm-2 9.5v4.2l-.17-.25a1 1 0 0 0 -.83-.45h-3v-4h2.8zm-8-9.5h6v2h-6zm0 4h6v3h-3a1 1 0 0 0 -1 1v6a1 1 0 0 0 1 1h1v3.13l-3.55-2.37a1 1 0 0 1 -.45-.83zm10 32h-10v-4h10zm-1-14a1 1 0 0 0 -1 1v7h-6v-10.8l2.45 1.63a.963.963 0 0 0 1.02.05.984.984 0 0 0 .53-.88v-5h.46l4.67 7zm3-2.3-2-3v-6.37l2 .84zm0-10.7-4-1.67v-3.33h3a1 1 0 0 1 1 1zm0-6.82v-2.18h4v7a.967.967 0 0 0 .04.29l1.17 3.88-3.21-1.34v-4.83a3.01 3.01 0 0 0 -2-2.82zm2 9.82 3.95 1.64.96 3.2-3.45 5.16h-1.46zm10 14h-7a3.01 3.01 0 0 1 -2.82-2h1.82a1 1 0 0 0 .83-.45l4-6a.993.993 0 0 0 .13-.84l-2.96-9.86v-6.85h5a1 1 0 0 1 1 1z" fill="#57a4ff"/><path d="m12.293 11.707 1.414-1.414-2.293-2.293h41.172l-2.293 2.293 1.414 1.414 4-4a1 1 0 0 0 0-1.414l-4-4-1.414 1.414 2.293 2.293h-41.172l2.293-2.293-1.414-1.414-4 4a1 1 0 0 0 0 1.414z" fill="#57a4ff"/></g></svg>