<svg height="512" viewBox="0 0 64 64" width="512" xmlns="http://www.w3.org/2000/svg"><g id="social_distancing-eat-restaurant-table-people" data-name="social distancing-eat-restaurant-table-people"><g fill="#bddbff"><path d="m61 25v36h-6v-10h-6v10h-6v-14h12v-22z"/><path d="m53 9v6a2.006 2.006 0 0 1 -2 2h-2l-2-4a2 2 0 0 0 0-4v-2h-5a2 2 0 0 1 -2-2 2.015 2.015 0 0 1 2-2h5a6 6 0 0 1 6 6z"/><path d="m51 23v14h-10v-10h-12v-4z"/><path d="m33 33a2.015 2.015 0 0 1 -2 2h-26a2.006 2.006 0 0 1 -2-2 2.015 2.015 0 0 1 2-2h26a2.006 2.006 0 0 1 2 2z"/><path d="m7 3h24v4h-24z"/><path d="m26 59a2.015 2.015 0 0 1 -2 2h-12a2.006 2.006 0 0 1 -2-2 2.015 2.015 0 0 1 2-2h12a2.006 2.006 0 0 1 2 2z"/><path d="m24 25v2a4 4 0 0 1 -8 0v-2z"/></g><path d="m12 11v3h2v-2h3v-2h-4a1 1 0 0 0 -1 1z" fill="#57a4ff"/><path d="m12 16h2v2h-2z" fill="#57a4ff"/><path d="m61 24h-6a1 1 0 0 0 -1 1v21h-2v-28.18a3.01 3.01 0 0 0 2-2.82v-6a7.008 7.008 0 0 0 -7-7h-5a2.989 2.989 0 0 0 -2 5.22v3.54l-1.89 3.79a1 1 0 0 0 .89 1.45h1v1a3.009 3.009 0 0 0 3 3h1v2h-14v-14h1a1 1 0 0 0 1-1v-4a1 1 0 0 0 -1-1h-24a1 1 0 0 0 -1 1v4a1 1 0 0 0 1 1h1v22h-3a3 3 0 0 0 0 6h10v20h-3a3 3 0 0 0 0 6h12a3 3 0 0 0 0-6h-3v-20h10a3 3 0 0 0 0-6h-1v-2h10v13a1 1 0 0 1 -1 1h-2a3.009 3.009 0 0 0 -3 3v16a1 1 0 0 0 1 1h14a1 1 0 0 0 1-1v-9h4v9a1 1 0 0 0 1 1h6a1 1 0 0 0 1-1v-36a1 1 0 0 0 -1-1zm-19-20h5a5 5 0 0 1 5 5v6a1 1 0 0 1 -1 1h-1.38l-1.19-2.37a3 3 0 0 0 -.43-5.46v-1.17a1 1 0 0 0 -1-1h-5a1 1 0 0 1 0-2zm1 14a1 1 0 0 1 -1-1v-2a1 1 0 0 0 -1-1h-.38l1.27-2.55a1 1 0 0 0 .11-.45v-3h4v1a1 1 0 0 0 1 1 1 1 0 0 1 0 2 1 1 0 0 0 -.89 1.45l2 4a.988.988 0 0 0 .89.55h1v4h-4v-3a1 1 0 0 0 -1-1zm-19 40a1 1 0 0 1 0 2h-12a1 1 0 0 1 0-2zm-7-2v-20h2v20zm14-24a1 1 0 0 1 0 2h-26a1 1 0 0 1 0-2zm-7-8h-1.23l2.09-3.49-1.72-1.02-2.71 4.51h-.86l-2.71-4.51-1.72 1.02 2.09 3.49h-1.23a1 1 0 0 0 -1 1v2a4.924 4.924 0 0 0 1.03 3h-6.03v-22h18v22h-4.03a4.924 4.924 0 0 0 1.03-3v-2a1 1 0 0 0 -1-1zm-1 2v1a3 3 0 0 1 -6 0v-1zm-15-20v-2h22v2zm22 20v-2h20v12h-8v-9a1 1 0 0 0 -1-1zm12 21v13h-6v-15a1 1 0 0 1 1-1h2a3.009 3.009 0 0 0 3-3v-3h8v8h-7a1 1 0 0 0 -1 1zm6 13h-4v-8h4zm6-10h-10v-2h10zm6 10h-4v-34h4z" fill="#57a4ff"/></g></svg>