<svg height="512" viewBox="0 0 64 64" width="512" xmlns="http://www.w3.org/2000/svg"><g id="social_distancing-safeguard-protect-face_shield-face_mask" data-name="social distancing-safeguard-protect-face shield-face mask"><g fill="#bddbff"><path d="m61 8v10a4 4 0 0 1 -4-4v-10a3.995 3.995 0 0 1 4 4z"/><path d="m55 47h-14l2-10h3v3a2 2 0 0 0 4 0v-3h3z"/><path d="m53 7v7l-2 5-4-4v-6a2.006 2.006 0 0 0 -2-2h-4a4 4 0 0 1 4-4h4a4.009 4.009 0 0 1 4 4z"/><path d="m50 57v4h-8v-2a2.006 2.006 0 0 1 2-2z"/><path d="m25 6v1h-6a2.006 2.006 0 0 0 -2 2v6l-4 4-2-5v-7a4.009 4.009 0 0 1 4-4h7a3 3 0 0 1 3 3z"/><path d="m23 47h-14l2-10h3v3a2 2 0 0 0 4 0v-3h3z"/><path d="m22 59v2h-8v-4h6a2.006 2.006 0 0 1 2 2z"/><path d="m7 14v-10a3.995 3.995 0 0 0 -4 4v10a4 4 0 0 0 4-4z"/></g><path d="m57 3h-5.03a4.939 4.939 0 0 0 -2.97-1h-4a5.017 5.017 0 0 0 -4.9 4h-3.1a3.009 3.009 0 0 0 -3 3v12a1 1 0 0 0 1 1h3.17a2.956 2.956 0 0 0 2.12-.88l1.42-1.42a2.98 2.98 0 0 0 1.29.3h1v2.18a3.01 3.01 0 0 0 -2 2.82v.13a4 4 0 0 0 0 7.74v4.03l-1.98 9.9a.99.99 0 0 0 .21.83.971.971 0 0 0 .77.37h4v8h-1a3.009 3.009 0 0 0 -3 3v2a1 1 0 0 0 1 1h8a1 1 0 0 0 1-1v-13h4a.971.971 0 0 0 .77-.37.99.99 0 0 0 .21-.83l-1.98-9.9v-11.9a3.01 3.01 0 0 0 -2-2.82v-2.99l1.93-4.82a.937.937 0 0 0 .07-.37v-5h2v5a5 5 0 0 0 5 5 1 1 0 0 0 1-1v-10a5 5 0 0 0 -5-5zm-18.12 16.71a.99.99 0 0 1 -.71.29h-2.17v-11a1 1 0 0 1 1-1h3v2.76l-1.89 3.79a1 1 0 0 0 .89 1.45h1v1a2.98 2.98 0 0 0 .3 1.29zm3.12-3.12v-1.59a1 1 0 0 0 -1-1h-.38l1.27-2.55a1 1 0 0 0 .11-.45v-3h3a1 1 0 0 1 1 1v3.59zm1.41 1.41 2.66-2.65a1.127 1.127 0 0 0 .22.36l3.71 3.7v2.59h-4v-3a1 1 0 0 0 -1-1zm-2.41 11a2.006 2.006 0 0 1 2-2 1 1 0 0 0 1-1v-1a1 1 0 0 1 1-1h6a1 1 0 0 1 1 1v11h-1v-8a3 3 0 0 0 -3-3 3.009 3.009 0 0 0 -3 3v8h-1v-4a1 1 0 0 0 -1-1 2.006 2.006 0 0 1 -2-2zm8-1v12a1 1 0 0 1 -2 0v-12a1 1 0 0 1 1-1 .949.949 0 0 1 .71.31.928.928 0 0 1 .29.69zm0 32h-6v-1a1 1 0 0 1 1-1h5zm0-4h-2v-8h2zm3.18-18 1.6 8h-11.56l1.6-8h1.18v2a3 3 0 0 0 6 0v-2zm-.18-24.19-1.37 3.41-2.63-2.63v-5.59a3.009 3.009 0 0 0 -3-3h-2.83a3.014 3.014 0 0 1 2.83-2h4a3.009 3.009 0 0 1 3 3zm4-6.81h-2a4.941 4.941 0 0 0 -.42-2h2.42zm4 9.83a3.014 3.014 0 0 1 -2-2.83v-8.83a3.014 3.014 0 0 1 2 2.83z" fill="#57a4ff"/><path d="m27 6h-1a4 4 0 0 0 -4-4h-7a4.939 4.939 0 0 0 -2.97 1h-5.03a5 5 0 0 0 -5 5v10a1 1 0 0 0 1 1 5 5 0 0 0 5-5v-5h2v5a.937.937 0 0 0 .07.37l1.93 4.82v2.99a3.01 3.01 0 0 0 -2 2.82v11.9l-1.98 9.9a.99.99 0 0 0 .21.83.971.971 0 0 0 .77.37h4v13a1 1 0 0 0 1 1h8a1 1 0 0 0 1-1v-2a3.009 3.009 0 0 0 -3-3h-1v-8h4a.971.971 0 0 0 .77-.37.99.99 0 0 0 .21-.83l-1.98-9.9v-4.03a4 4 0 0 0 0-7.74v-.13a3.01 3.01 0 0 0 -2-2.82v-2.18h1a2.98 2.98 0 0 0 1.29-.3l1.42 1.42a2.956 2.956 0 0 0 2.12.88h3.17a1 1 0 0 0 1-1v-12a3.009 3.009 0 0 0 -3-3zm-21 8a3.014 3.014 0 0 1 -2 2.83v-8.83a3.014 3.014 0 0 1 2-2.83zm4-7h-2v-2h2.42a4.941 4.941 0 0 0 -.42 2zm2 0a3.009 3.009 0 0 1 3-3h7a2.006 2.006 0 0 1 2 2h-5a3.009 3.009 0 0 0 -3 3v5.59l-2.63 2.63-1.37-3.41zm8 51a1 1 0 0 1 1 1v1h-6v-2zm-5-2v-8h2v8zm-4.78-10 1.6-8h1.18v2a3 3 0 0 0 6 0v-2h1.18l1.6 8zm4.78-6v-12a1 1 0 0 1 2 0v12a1 1 0 0 1 -2 0zm6-13a2 2 0 0 1 0 4 1 1 0 0 0 -1 1v4h-1v-8a3 3 0 0 0 -6 0v8h-1v-11a1 1 0 0 1 1-1h6a1 1 0 0 1 1 1v1a1 1 0 0 0 1 1zm-2-9a1 1 0 0 0 -1 1v3h-4v-2.59l3.71-3.7a.967.967 0 0 0 .23-.36l2.65 2.65zm4-4a1 1 0 0 0 -1 1v1.59l-4-4v-3.59a1 1 0 0 1 1-1h3v3a1 1 0 0 0 .11.45l1.27 2.55zm5 6h-2.17a.99.99 0 0 1 -.71-.29l-1.42-1.42a2.98 2.98 0 0 0 .3-1.29v-1h1a1 1 0 0 0 .89-1.45l-1.89-3.79v-2.76h3a1 1 0 0 1 1 1z" fill="#57a4ff"/></g></svg>