<svg height="512" viewBox="0 0 64 64" width="512" xmlns="http://www.w3.org/2000/svg"><g id="social_distancing-virus-corona-safeguard-protect-protection" data-name="social distancing-virus-corona-safeguard-protect-protection"><g fill="#bddbff"><path d="m61 25v14h-3v-11a2.015 2.015 0 0 0 -2-2 2.006 2.006 0 0 0 -2 2v11h-3v-14a2.006 2.006 0 0 1 2-2h6a2.006 2.006 0 0 1 2 2z"/><path d="m61 7v10a2.006 2.006 0 0 1 -2 2h-.76a2 2 0 0 1 -1.79-1.11l-1.45-2.89a2 2 0 0 0 0-4v-2a2.006 2.006 0 0 0 -2-2h-4a4 4 0 0 1 4-4h4a4 4 0 0 1 4 4z"/><path d="m51 59v2h8v-4h-6a2.006 2.006 0 0 0 -2 2z"/><path d="m32 39a3.995 3.995 0 1 0 2.83 1.17 4.025 4.025 0 0 0 -2.83-1.17z"/><path d="m15 7h-4a2.006 2.006 0 0 0 -2 2v2a2 2 0 0 0 0 4l-1.45 2.89a2 2 0 0 1 -1.79 1.11h-.76a2.006 2.006 0 0 1 -2-2v-10a4 4 0 0 1 4-4h4a4 4 0 0 1 4 4z"/><path d="m13 59a2.006 2.006 0 0 0 -2-2h-6v4h8z"/><path d="m13 25v14h-3v-11a2.006 2.006 0 0 0 -2-2 2.015 2.015 0 0 0 -2 2v11h-3v-14a2.006 2.006 0 0 1 2-2h6a2.006 2.006 0 0 1 2 2z"/></g><path d="m32.293 9.293 1.414 1.414 4-4a1 1 0 0 0 0-1.414l-4-4-1.414 1.414 2.293 2.293h-7.586v2h7.586z" fill="#57a4ff"/><path d="m31.293 22.707 1.414-1.414-2.293-2.293h6.586v-2h-6.586l2.293-2.293-1.414-1.414-4 4a1 1 0 0 0 0 1.414z" fill="#57a4ff"/><path d="m17.89 14.55-1.89-3.79v-3.76a5 5 0 0 0 -5-5h-4a5 5 0 0 0 -5 5v10a3.01 3.01 0 0 0 2 2.82v2.36a3.01 3.01 0 0 0 -2 2.82v14a1 1 0 0 0 1 1h1v21a1 1 0 0 0 1 1h8a1 1 0 0 0 1-1v-2a3.01 3.01 0 0 0 -2-2.82v-16.18h1a1 1 0 0 0 1-1v-14a3.01 3.01 0 0 0 -2-2.82v-2.18h1a3.009 3.009 0 0 0 3-3v-1h1a1 1 0 0 0 .89-1.45zm-13.89-7.55a3.009 3.009 0 0 1 3-3h4a3.014 3.014 0 0 1 2.83 2h-2.83a3.009 3.009 0 0 0 -3 3v1.17a3 3 0 0 0 -.43 5.46l-.91 1.82a.992.992 0 0 1 -.9.55h-.76a1 1 0 0 1 -1-1zm8 53h-6v-2h5a1 1 0 0 1 1 1zm-4-17a2.974 2.974 0 0 0 2-.78v13.78h-4v-13.78a2.974 2.974 0 0 0 2 .78zm-1-3v-12a1 1 0 0 1 2 0v12a1 1 0 0 1 -2 0zm5-2h-1v-10a3 3 0 0 0 -6 0v10h-1v-13a1 1 0 0 1 1-1h6a1 1 0 0 1 1 1zm3-24a1 1 0 0 0 -1 1v2a1 1 0 0 1 -1 1h-2a1 1 0 0 0 -1 1v3h-4v-2.02a2.981 2.981 0 0 0 2.45-1.64l1.44-2.89a1 1 0 0 0 -.89-1.45 1 1 0 0 1 0-2 1 1 0 0 0 1-1v-2a1 1 0 0 1 1-1h3v3a1 1 0 0 0 .11.45l1.27 2.55z" fill="#57a4ff"/><path d="m62 17v-10a5 5 0 0 0 -5-5h-4a5 5 0 0 0 -5 5v3.76l-1.89 3.79a1 1 0 0 0 .89 1.45h1v1a3.009 3.009 0 0 0 3 3h1v2.18a3.01 3.01 0 0 0 -2 2.82v14a1 1 0 0 0 1 1h1v16.18a3.01 3.01 0 0 0 -2 2.82v2a1 1 0 0 0 1 1h8a1 1 0 0 0 1-1v-21h1a1 1 0 0 0 1-1v-14a3.01 3.01 0 0 0 -2-2.82v-2.36a3.01 3.01 0 0 0 2-2.82zm-11 1a1 1 0 0 1 -1-1v-2a1 1 0 0 0 -1-1h-.38l1.27-2.55a1 1 0 0 0 .11-.45v-3h3a1 1 0 0 1 1 1v2a1 1 0 0 0 1 1 1 1 0 0 1 0 2 1 1 0 0 0 -.89 1.45l1.44 2.89a2.981 2.981 0 0 0 2.45 1.64v2.02h-4v-3a1 1 0 0 0 -1-1zm7 42h-6v-1a1 1 0 0 1 1-1h5zm0-4h-4v-13.78a2.954 2.954 0 0 0 4 0zm-3-16v-12a1 1 0 0 1 2 0v12a1 1 0 0 1 -2 0zm5-2h-1v-10a3 3 0 0 0 -6 0v10h-1v-13a1 1 0 0 1 1-1h6a1 1 0 0 1 1 1zm-1-20h-.76a.992.992 0 0 1 -.9-.55l-.91-1.82a3 3 0 0 0 -.43-5.46v-1.17a3.009 3.009 0 0 0 -3-3h-2.83a3.014 3.014 0 0 1 2.83-2h4a3.009 3.009 0 0 1 3 3v10a1 1 0 0 1 -1 1z" fill="#57a4ff"/><path d="m31 42h2v2h-2z" fill="#57a4ff"/><path d="m32 28a15 15 0 1 0 15 15 15.018 15.018 0 0 0 -15-15zm0 28a13 13 0 1 1 13-13 13.012 13.012 0 0 1 -13 13z" fill="#57a4ff"/><path d="m41 41a2 2 0 0 0 -1.72 1h-2.38a5.038 5.038 0 0 0 -.73-1.75l1.68-1.69a2.236 2.236 0 0 0 .51.07 2 2 0 1 0 -1.92-1.48l-1.69 1.68a5.038 5.038 0 0 0 -1.75-.73v-2.38a2 2 0 1 0 -2 0v2.38a5.038 5.038 0 0 0 -1.75.73l-1.69-1.68a2 2 0 1 0 -1.92 1.48 2.236 2.236 0 0 0 .51-.07l1.68 1.69a5.038 5.038 0 0 0 -.73 1.75h-2.38a2 2 0 1 0 0 2h2.38a5.038 5.038 0 0 0 .73 1.75l-1.68 1.69a2 2 0 1 0 1.41 1.41l1.69-1.68a5.038 5.038 0 0 0 1.75.73v2.38a2 2 0 1 0 2 0v-2.38a5.038 5.038 0 0 0 1.75-.73l1.69 1.68a2 2 0 1 0 1.41-1.41l-1.68-1.69a5.038 5.038 0 0 0 .73-1.75h2.38a2 2 0 1 0 1.72-3zm-9 5a3 3 0 1 1 3-3 3.009 3.009 0 0 1 -3 3z" fill="#57a4ff"/></g></svg>