<svg height="512" viewBox="0 0 64 64" width="512" xmlns="http://www.w3.org/2000/svg"><g id="spray-cream-wash-cleaning-clean"><g fill="#bddbff"><path d="m43 51h18v10h-18z"/><path d="m61 25v8h-18v-8a2.006 2.006 0 0 1 2-2h14a2.006 2.006 0 0 1 2 2z"/><path d="m49 11h6v6h-6z"/><path d="m50 7v-4h-8l-8 4v4l8-4z"/><path d="m21 61h16a2.006 2.006 0 0 0 2-2v-2h-20v2a2.006 2.006 0 0 0 2 2z"/><path d="m39 35a2.006 2.006 0 0 0 -2-2h-16a2.006 2.006 0 0 0 -2 2v2h20z"/><path d="m31 53v-4h4v-4h-4v-4h-4v4h-4v4h4v4z"/><path d="m32 21v6h-6v-8h4a2.006 2.006 0 0 1 2 2z"/><path d="m5 61h8a2.006 2.006 0 0 0 2-2v-2h-12v2a2.006 2.006 0 0 0 2 2z"/><path d="m15 43a2.006 2.006 0 0 0 -2-2h-8a2.006 2.006 0 0 0 -2 2v2h12z"/><path d="m7 31h4v6h-4z"/></g><path d="m14 40.18v-1.18a3.01 3.01 0 0 0 -2-2.82v-5.18a1 1 0 0 0 -1-1h-4a1 1 0 0 0 -1 1v5.18a3.01 3.01 0 0 0 -2 2.82v1.18a3.01 3.01 0 0 0 -2 2.82v16a3.009 3.009 0 0 0 3 3h8a3.009 3.009 0 0 0 3-3v-16a3.01 3.01 0 0 0 -2-2.82zm-6-8.18h2v4h-2zm-2 7a1 1 0 0 1 1-1h4a1 1 0 0 1 1 1v1h-6zm8 20a1 1 0 0 1 -1 1h-8a1 1 0 0 1 -1-1v-1h10zm0-3h-10v-10h10zm0-12h-10v-1a1 1 0 0 1 1-1h8a1 1 0 0 1 1 1z" fill="#57a4ff"/><path d="m6 52h2v2h2v-2h2v-2h-2v-2h-2v2h-2z" fill="#57a4ff"/><path d="m59 22v-3a3.009 3.009 0 0 0 -3-3v-5a1 1 0 0 0 -1-1v-7a1 1 0 0 0 -1-1h-12a1 1 0 0 0 -.45.11l-8 4a.977.977 0 0 0 -.55.89v4a1 1 0 0 0 .47.85 1.014 1.014 0 0 0 .53.15 1.03 1.03 0 0 0 .45-.11l7.79-3.89h6.76v2a1 1 0 0 0 -1 1v5a3.009 3.009 0 0 0 -3 3v3a3.009 3.009 0 0 0 -3 3v36a1 1 0 0 0 1 1h18a1 1 0 0 0 1-1v-36a3.009 3.009 0 0 0 -3-3zm-8-18h2v6h-2zm-1 8h4v4h-4zm-8-6a1 1 0 0 0 -.45.11l-6.55 3.27v-1.76l7.24-3.62h6.76v2zm5 13a1 1 0 0 1 1-1h8a1 1 0 0 1 1 1v3h-10zm13 41h-16v-8h16zm0-10h-16v-16h16zm0-18h-16v-7a1 1 0 0 1 1-1h14a1 1 0 0 1 1 1z" fill="#57a4ff"/><path d="m37 32h-1v-3a3.009 3.009 0 0 0 -3-3v-5a3.009 3.009 0 0 0 -3-3h-8a1 1 0 0 0 -1 1v4a1 1 0 0 0 1 1h3v2a3.009 3.009 0 0 0 -3 3v3h-1a3.009 3.009 0 0 0 -3 3v24a3.009 3.009 0 0 0 3 3h16a3.009 3.009 0 0 0 3-3v-24a3.009 3.009 0 0 0 -3-3zm-10-12h3a1 1 0 0 1 1 1v5h-4zm-4 2v-2h2v2zm1 7a1 1 0 0 1 1-1h8a1 1 0 0 1 1 1v3h-10zm14 30a1 1 0 0 1 -1 1h-16a1 1 0 0 1 -1-1v-1h18zm0-3h-18v-18h18zm0-20h-18v-1a1 1 0 0 1 1-1h16a1 1 0 0 1 1 1z" fill="#57a4ff"/><path d="m35 44h-3v-3a1 1 0 0 0 -1-1h-4a1 1 0 0 0 -1 1v3h-3a1 1 0 0 0 -1 1v4a1 1 0 0 0 1 1h3v3a1 1 0 0 0 1 1h4a1 1 0 0 0 1-1v-3h3a1 1 0 0 0 1-1v-4a1 1 0 0 0 -1-1zm-1 4h-3a1 1 0 0 0 -1 1v3h-2v-3a1 1 0 0 0 -1-1h-3v-2h3a1 1 0 0 0 1-1v-3h2v3a1 1 0 0 0 1 1h3z" fill="#57a4ff"/></g></svg>