<svg height="512" viewBox="0 0 64 64" width="512" xmlns="http://www.w3.org/2000/svg"><g id="spray-screen-cleaning-clean-people"><path d="m58 57v-52a2.006 2.006 0 0 0 -2-2h-48a2.006 2.006 0 0 0 -2 2v52h-3v4h58v-4zm-4-29h-4v4h4v13h-4v4h4v8h-18v-16h3v-12a2.006 2.006 0 0 0 -2-2h-10a2.006 2.006 0 0 0 -2 2v12h3v16h-18v-8h4v-4h-4v-13h4v-4h-4v-21h7v4h4v-4h22v4h4v-4h7z" fill="#bddbff"/><path d="m32 15a4 4 0 0 0 -4 4v2l4-2 4 2v-2a3.995 3.995 0 0 0 -4-4z" fill="#bddbff"/><g fill="#57a4ff"><path d="m61 56h-2v-51a3.009 3.009 0 0 0 -3-3h-48a3.009 3.009 0 0 0 -3 3v51h-2a1 1 0 0 0 -1 1v4a1 1 0 0 0 1 1h58a1 1 0 0 0 1-1v-4a1 1 0 0 0 -1-1zm-54-51a1 1 0 0 1 1-1h48a1 1 0 0 1 1 1v51h-2v-49a1 1 0 0 0 -1-1h-44a1 1 0 0 0 -1 1v49h-2zm43 22a1 1 0 0 0 -1 1v4a1 1 0 0 0 1 1h3v11h-3a1 1 0 0 0 -1 1v4a1 1 0 0 0 1 1h3v6h-16v-14h2a1 1 0 0 0 1-1v-12a3.009 3.009 0 0 0 -3-3h-1.03a4.924 4.924 0 0 0 1.03-3v-4a5 5 0 0 0 -10 0v4a4.924 4.924 0 0 0 1.03 3h-1.03a3.009 3.009 0 0 0 -3 3v12a1 1 0 0 0 1 1h2v14h-16v-6h3a1 1 0 0 0 1-1v-4a1 1 0 0 0 -1-1h-3v-11h3a1 1 0 0 0 1-1v-4a1 1 0 0 0 -1-1h-3v-19h5v3a1 1 0 0 0 1 1h4a1 1 0 0 0 1-1v-3h20v3a1 1 0 0 0 1 1h4a1 1 0 0 0 1-1v-3h5v19zm3 2v2h-2v-2zm0 17v2h-2v-2zm-19-15v9h-4v-9h-2v9h-2v-11a1 1 0 0 1 1-1h10a1 1 0 0 1 1 1v11h-2v-9zm1 11v14h-2v-14zm-4 0v14h-2v-14zm1-21.88 3 1.5v1.38a3 3 0 0 1 -6 0v-1.38zm-3-.74v-.38a3 3 0 0 1 6 0v.38l-2.55-1.27a.956.956 0 0 0 -.9 0zm-18 28.62v-2h2v2zm0-17v-2h2v2zm7-21v-2h2v2zm26 0v-2h2v2zm16 50h-56v-2h56z"/><path d="m18 14h2v2h-2z"/><path d="m18 18h2v2h-2z"/><path d="m21.5 13.866h2v2h-2z" transform="matrix(.866 -.5 .5 .866 -4.419 13.242)"/><path d="m23.5 17.33h2v2h-2z" transform="matrix(.866 -.5 .5 .866 -5.882 14.703)"/><path d="m14.5 13.866h2v2h-2z" transform="matrix(.5 -.866 .866 .5 -5.124 20.856)"/><path d="m12.5 17.33h2v2h-2z" transform="matrix(.5 -.866 .866 .5 -9.124 20.858)"/><path d="m44 14h2v2h-2z"/><path d="m44 18h2v2h-2z"/><path d="m47.5 13.866h2v2h-2z" transform="matrix(.866 -.5 .5 .866 -.936 26.237)"/><path d="m49.5 17.33h2v2h-2z" transform="matrix(.866 -.5 .5 .866 -2.4 27.701)"/><path d="m40.5 13.866h2v2h-2z" transform="matrix(.5 -.866 .866 .5 7.878 43.376)"/><path d="m38.5 17.33h2v2h-2z" transform="matrix(.5 -.866 .866 .5 3.878 43.376)"/><path d="m17 29h2v2h-2z"/><path d="m21 29h2v2h-2z"/><path d="m16.866 25.5h2v2h-2z" transform="matrix(.866 -.5 .5 .866 -10.855 12.481)"/><path d="m20.33 23.5h2v2h-2z" transform="matrix(.866 -.5 .5 .866 -9.391 13.945)"/><path d="m16.866 32.5h2v2h-2z" transform="matrix(.5 -.866 .866 .5 -20.079 32.226)"/><path d="m20.33 34.5h2v2h-2z" transform="matrix(.5 -.866 .866 .5 -20.079 36.226)"/><path d="m17 46h2v2h-2z"/><path d="m21 46h2v2h-2z"/><path d="m16.866 42.5h2v2h-2z" transform="matrix(.866 -.5 .5 .866 -19.354 14.758)"/><path d="m20.33 40.5h2v2h-2z" transform="matrix(.866 -.5 .5 .866 -17.89 16.221)"/><path d="m16.866 49.5h2v2h-2z" transform="matrix(.5 -.866 .866 .5 -34.802 40.727)"/><path d="m20.33 51.5h2v2h-2z" transform="matrix(.5 -.866 .866 .5 -34.802 44.728)"/><path d="m45 29h2v2h-2z"/><path d="m41 29h2v2h-2z"/><path d="m45.134 25.5h2v2h-2z" transform="matrix(.5 -.866 .866 .5 .12 53.207)"/><path d="m41.67 23.5h2v2h-2z" transform="matrix(.5 -.866 .866 .5 .12 49.207)"/><path d="m45.134 32.5h2v2h-2z" transform="matrix(.866 -.5 .5 .866 -10.569 27.55)"/><path d="m41.67 34.5h2v2h-2z" transform="matrix(.866 -.5 .5 .866 -12.032 26.086)"/><path d="m45 46h2v2h-2z"/><path d="m41 46h2v2h-2z"/><path d="m45.134 42.5h2v2h-2z" transform="matrix(.5 -.866 .866 .5 -14.604 61.709)"/><path d="m41.67 40.5h2v2h-2z" transform="matrix(.5 -.866 .866 .5 -14.604 57.709)"/><path d="m45.134 49.5h2v2h-2z" transform="matrix(.866 -.5 .5 .866 -19.067 29.827)"/><path d="m41.67 51.5h2v2h-2z" transform="matrix(.866 -.5 .5 .866 -20.531 28.363)"/></g></g></svg>