<svg height="512" viewBox="0 0 64 64" width="512" xmlns="http://www.w3.org/2000/svg"><g id="switch-spray-elevator-clean-cleaning"><path d="m41 59a2.006 2.006 0 0 0 2 2h16a2.006 2.006 0 0 0 2-2v-2h-20z" fill="#bddbff"/><path d="m61 35v2h-20v-2a2.006 2.006 0 0 1 2-2h16a2.006 2.006 0 0 1 2 2z" fill="#bddbff"/><path d="m57 45v4h-4v4h-4v-4h-4v-4h4v-4h4v4z" fill="#bddbff"/><path d="m54 19v8h-6v-10h4a2.006 2.006 0 0 1 2 2z" fill="#bddbff"/><path d="m15 23a8 8 0 1 0 -8-8 8 8 0 0 0 8 8zm0-11 3 6h-6z" fill="#bddbff"/><path d="m15 43a8 8 0 1 0 -8-8 8 8 0 0 0 8 8zm3-11-3 6-3-6z" fill="#bddbff"/><g fill="#57a4ff"><path d="m25 2h-20a3.009 3.009 0 0 0 -3 3v40a3.009 3.009 0 0 0 3 3h20a3.009 3.009 0 0 0 3-3v-40a3.009 3.009 0 0 0 -3-3zm1 43a1 1 0 0 1 -1 1h-20a1 1 0 0 1 -1-1v-40a1 1 0 0 1 1-1h20a1 1 0 0 1 1 1z"/><path d="m15 6a9 9 0 1 0 9 9 9.011 9.011 0 0 0 -9-9zm0 16a7 7 0 1 1 7-7 7.008 7.008 0 0 1 -7 7z"/><path d="m15.9 11.553a1.042 1.042 0 0 0 -1.79 0l-3 6a1 1 0 0 0 .89 1.447h6a1 1 0 0 0 .895-1.447zm-2.282 5.447 1.382-2.764 1.382 2.764z"/><path d="m15 26a9 9 0 1 0 9 9 9.011 9.011 0 0 0 -9-9zm0 16a7 7 0 1 1 7-7 7.008 7.008 0 0 1 -7 7z"/><path d="m18 31h-6a1 1 0 0 0 -.895 1.447l3 6a1 1 0 0 0 1.79 0l3-6a1 1 0 0 0 -.895-1.447zm-3 4.764-1.382-2.764h2.764z"/><path d="m59 32h-1v-3a3.009 3.009 0 0 0 -3-3v-7a3.009 3.009 0 0 0 -3-3h-8a1 1 0 0 0 -1 1v4a1 1 0 0 0 1 1h3v4a3.009 3.009 0 0 0 -3 3v3h-1a3.009 3.009 0 0 0 -3 3v24a3.009 3.009 0 0 0 3 3h16a3.009 3.009 0 0 0 3-3v-24a3.009 3.009 0 0 0 -3-3zm-10-14h3a1 1 0 0 1 1 1v7h-4zm-4 2v-2h2v2zm1 9a1 1 0 0 1 1-1h8a1 1 0 0 1 1 1v3h-10zm14 30a1 1 0 0 1 -1 1h-16a1 1 0 0 1 -1-1v-1h18zm0-3h-18v-18h18zm0-20h-18v-1a1 1 0 0 1 1-1h16a1 1 0 0 1 1 1z"/><path d="m57 44h-3v-3a1 1 0 0 0 -1-1h-4a1 1 0 0 0 -1 1v3h-3a1 1 0 0 0 -1 1v4a1 1 0 0 0 1 1h3v3a1 1 0 0 0 1 1h4a1 1 0 0 0 1-1v-3h3a1 1 0 0 0 1-1v-4a1 1 0 0 0 -1-1zm-1 4h-3a1 1 0 0 0 -1 1v3h-2v-3a1 1 0 0 0 -1-1h-3v-2h3a1 1 0 0 0 1-1v-3h2v3a1 1 0 0 0 1 1h3z"/><path d="m39 18h2v2h-2z"/><path d="m35 18h2v2h-2z"/><path d="m31 18h2v2h-2z"/><path d="m39.034 22.259h2v2h-2z" transform="matrix(.966 -.259 .259 .966 -4.656 11.154)"/><path d="m35.171 23.294h2v2h-2z" transform="matrix(.966 -.259 .259 .966 -5.055 10.189)"/><path d="m31.307 24.329h2v2h-2z" transform="matrix(.966 -.259 .259 .966 -5.462 9.242)"/><path d="m39.034 13.741h2v2h-2z" transform="matrix(.259 -.966 .966 .259 15.434 49.596)"/><path d="m35.171 12.706h2v2h-2z" transform="matrix(.259 -.966 .966 .259 13.57 45.097)"/><path d="m31.307 11.671h2v2h-2z" transform="matrix(.259 -.966 .966 .259 11.7 40.592)"/></g></g></svg>