<svg height="512" viewBox="0 0 64 64" width="512" xmlns="http://www.w3.org/2000/svg"><g id="washing_hands-hand-hands-wash-bubble" data-name="washing hands-hand-hands-wash-bubble"><circle cx="59" cy="20" fill="#bddbff" r="2"/><circle cx="53" cy="28" fill="#bddbff" r="2"/><circle cx="48" cy="21" fill="#bddbff" r="3"/><circle cx="42" cy="7" fill="#bddbff" r="2"/><path d="m5.02 23a4.95 4.95 0 0 0 .42 6.5 4.992 4.992 0 0 0 3.56 8.5 5.08 5.08 0 0 0 2.06-.45 4.974 4.974 0 0 0 3.94 4.35 4.712 4.712 0 0 0 1 .1 4.962 4.962 0 0 0 3.32-1.29 4.971 4.971 0 0 0 8.61 1.36l-3.9-3.9a2 2 0 0 1 2.8-2.85l-6.34-6.34a2 2 0 0 1 2.83-2.83l-2.12-2.12a2.016 2.016 0 0 1 0-2.83 2 2 0 0 1 2.83 0l2.12 2.12a2 2 0 0 1 2.83-2.83l2.83 2.83a2 2 0 0 1 2.83-2.83l6.8 6.8a4.964 4.964 0 0 0 -2.03-6.65 4.983 4.983 0 0 0 -5.98-7.91 4.987 4.987 0 0 0 -4.43-2.73 4.712 4.712 0 0 0 -1 .1 5 5 0 0 0 -3.5 2.76 5.378 5.378 0 0 0 -.5-.83 4.964 4.964 0 0 0 -7.5-.59 5.145 5.145 0 0 0 -.5-.43 4.988 4.988 0 0 0 -7.9 3c-.03 0-.07-.01-.1-.01a4.99 4.99 0 0 0 -2.98 9z" fill="#bddbff"/><circle cx="34" cy="5" fill="#bddbff" r="2"/><g fill="#57a4ff"><path d="m61.51 50.19-10.48-10.48-3.46-7.61a.864.864 0 0 0 -.21-.29l-4.73-4.74a6.148 6.148 0 0 0 .37-2.07 6.007 6.007 0 0 0 -2.11-4.55 5.911 5.911 0 0 0 1.11-3.45 6 6 0 0 0 -6-6 5.943 5.943 0 0 0 -2.2.43 5.968 5.968 0 0 0 -4.8-2.43v-1a3 3 0 0 0 -3-3 3 3 0 0 0 -1 .18v-.18a3 3 0 0 0 -3-3 3.009 3.009 0 0 0 -3 3v.18a3.051 3.051 0 0 0 -1-.18 3.009 3.009 0 0 0 -3 3v1.35a6.141 6.141 0 0 0 -2-.35 6.014 6.014 0 0 0 -5.67 4.04 5.994 5.994 0 0 0 -3.62 10.15 5.955 5.955 0 0 0 .42 6.31 5.992 5.992 0 0 0 6.19 9.35 5.948 5.948 0 0 0 3.68 3.8v18.35a1 1 0 0 0 1 1h14a1 1 0 0 0 1-1v-15.44l1.81 1.8a.864.864 0 0 0 .29.21l7.61 3.46 10.48 10.48a1.014 1.014 0 0 0 1.42 0l9.9-9.9a1.008 1.008 0 0 0 0-1.42zm-36.51-42.19a1 1 0 0 1 1-1 .949.949 0 0 1 .71.31.928.928 0 0 1 .29.69v1.36a5.972 5.972 0 0 0 -2 1.19zm-4-3a1 1 0 0 1 1-1 .949.949 0 0 1 .71.31.928.928 0 0 1 .29.69v4.82a6.082 6.082 0 0 0 -2-.73zm-4 3a1 1 0 0 1 1-1 .949.949 0 0 1 .71.31.928.928 0 0 1 .29.69v1.09a5.755 5.755 0 0 0 -2 .74zm-4.95 29.44a.988.988 0 0 0 -1.4-.8 4.061 4.061 0 0 1 -1.65.36 4 4 0 0 1 -2.85-6.8.984.984 0 0 0 0-1.4 3.956 3.956 0 0 1 -.33-5.2.982.982 0 0 0 .19-.74 1.006 1.006 0 0 0 -.39-.66 3.991 3.991 0 0 1 2.29-7.2 1.056 1.056 0 0 0 1.17-.79 3.994 3.994 0 0 1 6.72-2.06.984.984 0 0 0 1.4 0 3.978 3.978 0 0 1 6.4 1.14 1 1 0 0 0 1.8 0 3.966 3.966 0 0 1 7.14-.1 1 1 0 0 0 .62.5.97.97 0 0 0 .78-.1 3.956 3.956 0 0 1 2.06-.59 4 4 0 0 1 4 4 3.952 3.952 0 0 1 -1.27 2.91.984.984 0 0 0 -.31.85 1.022 1.022 0 0 0 .51.76 3.974 3.974 0 0 1 2.07 3.48 2.966 2.966 0 0 1 -.03.42l-5.63-5.63a3.056 3.056 0 0 0 -4.24 0 3.181 3.181 0 0 0 -.58.83l-.83-.83a3.012 3.012 0 0 0 -4.25 0 2.862 2.862 0 0 0 -.57.83l-.13-.13a3.005 3.005 0 0 0 -4.25 4.25l.13.13a2.862 2.862 0 0 0 -.83.57 3.006 3.006 0 0 0 0 4.25l4.38 4.38a2.821 2.821 0 0 0 -.85.57 2.994 2.994 0 0 0 0 4.24l3.21 3.21a3.96 3.96 0 0 1 -2.53.91 4 4 0 0 1 -3.74-2.63 1.008 1.008 0 0 0 -.7-.63.984.984 0 0 0 -.91.23 3.957 3.957 0 0 1 -6.6-2.53zm15.95 22.56h-12v-17a5.978 5.978 0 0 0 2.95-.79 5.987 5.987 0 0 0 5.05 2.79 5.875 5.875 0 0 0 3.94-1.5l.06.06zm22.9-.62-9.9-9.89a.864.864 0 0 0 -.29-.21l-7.62-3.46-8.35-8.36a.976.976 0 0 1 -.3-.7 1 1 0 0 1 .3-.71 1.014 1.014 0 0 1 1.41 0l4.95 4.95 1.41-1.41-11.31-11.32a1 1 0 0 1 0-1.41 1.008 1.008 0 0 1 1.42 0l11.31 11.31 1.41-1.41-13.43-13.44a1 1 0 0 1 0-1.41 1 1 0 0 1 1.41 0l13.44 13.43 1.41-1.41-11.31-11.32a1 1 0 0 1 1.41-1.41l11.32 11.31 1.41-1.41-8.49-8.49a.991.991 0 0 1 -.29-.7 1 1 0 0 1 1.71-.71l11.89 11.89 3.46 7.62a.864.864 0 0 0 .21.29l9.89 9.9z"/><path d="m55 16a7 7 0 1 0 -7-7 7.008 7.008 0 0 0 7 7zm0-12a5 5 0 1 1 -5 5 5.006 5.006 0 0 1 5-5z"/><path d="m56 9h2a3 3 0 0 0 -3-3v2a1 1 0 0 1 1 1z"/><path d="m48 25a4 4 0 1 0 -4-4 4 4 0 0 0 4 4zm0-6a2 2 0 1 1 -2 2 2 2 0 0 1 2-2z"/><path d="m59 17a3 3 0 1 0 3 3 3 3 0 0 0 -3-3zm0 4a1 1 0 1 1 1-1 1 1 0 0 1 -1 1z"/><path d="m50 28a3 3 0 1 0 3-3 3 3 0 0 0 -3 3zm4 0a1 1 0 1 1 -1-1 1 1 0 0 1 1 1z"/><path d="m42 10a3 3 0 1 0 -3-3 3 3 0 0 0 3 3zm0-4a1 1 0 1 1 -1 1 1 1 0 0 1 1-1z"/><path d="m34 8a3 3 0 1 0 -3-3 3 3 0 0 0 3 3zm0-4a1 1 0 1 1 -1 1 1 1 0 0 1 1-1z"/></g></g></svg>