<svg height="512" viewBox="0 0 64 64" width="512" xmlns="http://www.w3.org/2000/svg"><g id="woman-face_shield-masked-face_mask-protection" data-name="woman-face shield-masked-face mask-protection"><path d="m61 13v39a9 9 0 0 1 -9 9h-17v-8a4 4 0 0 1 4-4h8v-25a2.006 2.006 0 0 0 2-2v-2a2.006 2.006 0 0 0 -2-2h-2v-5z" fill="#bddbff"/><path d="m61 7v2h-16v4h-4v-4h-13a3 3 0 0 1 0-6h29a4 4 0 0 1 4 4z" fill="#bddbff"/><path d="m41 19.26v12.3l-5 9.44h-6l-5-12 2.14-5.36 8.86-2.8z" fill="#bddbff"/><g fill="#57a4ff"><path d="m57 2h-29a4 4 0 0 0 -4 4 3.906 3.906 0 0 0 .56 2h-1.56a3.009 3.009 0 0 0 -3 3v34a1 1 0 0 0 1 1h11a5.017 5.017 0 0 0 4.9-4h2.1v6a5 5 0 0 0 -5 5v8a1 1 0 0 0 1 1h17a10.016 10.016 0 0 0 10-10v-45a5 5 0 0 0 -5-5zm-25 42h-10v-33a1 1 0 0 1 1-1h5v8.81l-3.93 9.82a.975.975 0 0 0 .01.75l5 12a.987.987 0 0 0 .92.62h4.82a3.01 3.01 0 0 1 -2.82 2zm3-4h-4.33l-4.59-11.01 1.82-4.54 7.1-2.24zm0-23v3.11l-6.14 1.94 1.07-2.68a.937.937 0 0 0 .07-.37v-9h10v2a5 5 0 0 0 -5 5zm9-3v3.27l-7 2.21v-2.48a3.009 3.009 0 0 1 3-3zm-2-2v-2h2v2zm-5 9.57 3-.94v10.68l-3 5.66zm9 38.43h-10v-7a3.009 3.009 0 0 1 3-3h7zm0-12h-5v-7a1 1 0 0 0 -1-1h-2.34l7.94-15h.4zm1-25h-2a1 1 0 0 0 -.88.53l-2.12 4v-7.53l3.15-1h1.85a1 1 0 0 1 1 1v2a1 1 0 0 1 -1 1zm13 29a8.011 8.011 0 0 1 -8 8h-4v-35.17a3.014 3.014 0 0 0 2-2.83v-2a3.009 3.009 0 0 0 -3-3h-1v-3h14zm0-40h-14v-2h14zm0-4h-32a2 2 0 0 1 0-4h29a3.009 3.009 0 0 1 3 3z"/><path d="m2 28h7v2h-7z"/><path d="m11 28h2v2h-2z"/><path d="m15 28h2v2h-2z"/><path d="m1.531 22.25h7v2h-7z" transform="matrix(.866 -.5 .5 .866 -10.949 5.629)"/><path d="m9.66 19h2v2h-2z" transform="matrix(.866 -.5 .5 .866 -8.571 8.008)"/><path d="m13.125 17h1.999v2h-1.999z" transform="matrix(.866 -.5 .5 .866 -7.107 9.472)"/><path d="m4.031 31.25h2v7h-2z" transform="matrix(.5 -.866 .866 .5 -27.579 21.733)"/><path d="m9.66 37h2v2h-2z" transform="matrix(.5 -.866 .866 .5 -27.58 28.236)"/><path d="m13.124 39h2v1.999h-2z" transform="matrix(.5 -.866 .866 .5 -27.578 32.226)"/></g></g></svg>