<svg height="512" viewBox="0 0 64 64" width="512" xmlns="http://www.w3.org/2000/svg"><g id="woman-face_shield-masked-face_mask-safeguard" data-name="woman-face shield-masked-face mask-safeguard"><g fill="#bddbff"><path d="m61 43a14 14 0 0 1 -14-14v-22a4 4 0 0 1 4-4h2a4 4 0 0 1 4 4v17z"/><path d="m41 47v14h-26v-12a4 4 0 0 1 4-4h20a2.006 2.006 0 0 1 2 2z"/><path d="m40.96 16h-15.96v5h-4v-5a5 5 0 0 1 -5-5h-1.64a13.984 13.984 0 0 1 22.43-4 1 1 0 0 1 .11.1 14.134 14.134 0 0 1 3.52 5.9 13.468 13.468 0 0 1 .54 3z"/></g><path d="m58 23.9v-16.9a5 5 0 0 0 -5-5h-2a5.017 5.017 0 0 0 -4.9 4h-8.93a14.955 14.955 0 0 0 -23.42 4h-4.75a1 1 0 0 0 -1 1v30a1 1 0 0 0 1 1h8a5.017 5.017 0 0 0 4.9-4h2.1v6h-5a5 5 0 0 0 -5 5v12a1 1 0 0 0 1 1h26a1 1 0 0 0 1-1v-14a3.009 3.009 0 0 0 -3-3h-2v-9.64l1.99-2.38a13.039 13.039 0 0 0 3.01-8.32v-7.66a1.134 1.134 0 0 0 -.06-.32 15.439 15.439 0 0 0 -.24-1.68h4.3v15a15.018 15.018 0 0 0 15 15 1.022 1.022 0 0 0 .78-.37 1.007 1.007 0 0 0 .2-.84zm-38 13.1a3.009 3.009 0 0 1 -3 3h-7v-28h5.08a6.038 6.038 0 0 0 4.92 4.92zm1-23a.983.983 0 0 0 -.97.87 4 4 0 0 1 -3.03-3.87 1 1 0 0 0 -.95-.99 12.984 12.984 0 0 1 20.14-2.2 12.9 12.9 0 0 1 3.64 7.19h-13.83a1 1 0 0 0 -1-1zm3 2v4h-2v-4zm15 30a1 1 0 0 1 1 1v13h-24v-11a3.009 3.009 0 0 1 3-3zm1-22.34a10.973 10.973 0 0 1 -2.55 7.04l-2.22 2.66a1 1 0 0 0 -.23.64v10h-9v-7a1 1 0 0 0 -1-1h-3v-14h3a1 1 0 0 0 1-1h14zm0-4.66h-14v-2h14zm6-7h-4.87a15.166 15.166 0 0 0 -2.15-4h7.02zm2 17v-22a3.009 3.009 0 0 1 3-3h2a3.009 3.009 0 0 1 3 3v17a1.492 1.492 0 0 0 .02.21l3.73 17.73a13.018 13.018 0 0 1 -11.75-12.94z" fill="#57a4ff"/></g></svg>