<?xml version="1.0"?>
<svg xmlns="http://www.w3.org/2000/svg" viewBox="0 0 64 64" width="512" height="512"><g id="protection-protect-shield-world-coronavirus"><path d="M3,11V28.82a23.978,23.978,0,0,0,8.56,18.37L28,61l7.38-6.2a13.786,13.786,0,0,1-1.78-3.73L28,55.78,14.14,44.13A19.94,19.94,0,0,1,7,28.82V13.92L28,7.2l21,6.72v14.9a19.508,19.508,0,0,1-.46,4.26,14.037,14.037,0,0,1,3.88,1.01A24.385,24.385,0,0,0,53,28.82V11L28,3Z" style="fill:#bddbff"/><path d="M47,43a3.995,3.995,0,1,0,2.83,1.17A4.025,4.025,0,0,0,47,43Z" style="fill:#bddbff"/><path d="M44,29a15.752,15.752,0,0,1-.64,4.48,13.975,13.975,0,0,0-8.13,5.95A1.977,1.977,0,0,0,34,39a2.015,2.015,0,0,1-2-2,2.006,2.006,0,0,0-2-2H28a2.006,2.006,0,0,1-2-2V29a2.006,2.006,0,0,1,2-2h4a2.006,2.006,0,0,0,2-2V23a2.006,2.006,0,0,0-2-2H30a2.006,2.006,0,0,1-2-2V13a14.713,14.713,0,0,1,2,.13A16,16,0,0,1,44,29Z" style="fill:#bddbff"/><path d="M28,41v4a16.524,16.524,0,0,1-2-.12,15.993,15.993,0,0,1-6-29.72V17a2.006,2.006,0,0,0,2,2,2.015,2.015,0,0,1,2,2v2a2.006,2.006,0,0,1-2,2,2.015,2.015,0,0,0-2,2v2a2.006,2.006,0,0,0,2,2v6a2.006,2.006,0,0,0,2,2h2A2.006,2.006,0,0,1,28,41Z" style="fill:#bddbff"/><rect x="46" y="46" width="2" height="2" style="fill:#57a4ff"/><path d="M56,45a1.993,1.993,0,0,0-1.722,1H51.9a4.969,4.969,0,0,0-.732-1.753l1.687-1.687a1.941,1.941,0,0,0,1.924-.51h0a2,2,0,1,0-3.34-.9l-1.686,1.687A4.961,4.961,0,0,0,48,42.1V39.722a2,2,0,1,0-2,0V42.1a4.961,4.961,0,0,0-1.753.732l-1.686-1.687a2.04,2.04,0,1,0-1.415,1.414l1.687,1.687A4.969,4.969,0,0,0,42.1,46H39.722a2,2,0,1,0,0,2H42.1a4.969,4.969,0,0,0,.732,1.753L41.146,51.44a1.99,1.99,0,0,0-1.924.51h0a2,2,0,1,0,3.34.9l1.686-1.687A4.961,4.961,0,0,0,46,51.9v2.379a2,2,0,1,0,2,0V51.9a4.961,4.961,0,0,0,1.753-.732l1.686,1.687a2,2,0,1,0,1.415-1.414l-1.687-1.687A4.969,4.969,0,0,0,51.9,48h2.379A2,2,0,1,0,56,45Zm-9,5a3,3,0,1,1,3-3A3,3,0,0,1,47,50Z" style="fill:#57a4ff"/><path d="M53.55,33.52a25.71,25.71,0,0,0,.45-4.7V11a1,1,0,0,0-.7-.95l-25-8a.883.883,0,0,0-.6,0l-25,8A1,1,0,0,0,2,11V28.82a24.937,24.937,0,0,0,8.92,19.14L27.36,61.77a1.005,1.005,0,0,0,1.28,0l6.57-5.52A14.989,14.989,0,1,0,53.55,33.52ZM28,59.69,12.2,46.42A22.922,22.922,0,0,1,4,28.82V11.73L28,4.05l24,7.68V28.82a23.705,23.705,0,0,1-.34,3.93,14.124,14.124,0,0,0-1.94-.49A21.676,21.676,0,0,0,50,28.82V13.92a1,1,0,0,0-.7-.95l-21-6.72a.883.883,0,0,0-.6,0l-21,6.72a1,1,0,0,0-.7.95v14.9A20.932,20.932,0,0,0,13.5,44.9L27.36,56.55a1.005,1.005,0,0,0,1.28,0l4.51-3.8a15.1,15.1,0,0,0,.93,1.84Zm2.13-47.55a15.915,15.915,0,0,0-4.25,0,17,17,0,0,0,0,33.73,17.351,17.351,0,0,0,4.24,0,16.884,16.884,0,0,0,1.96-.37A14.758,14.758,0,0,0,32,47a15.006,15.006,0,0,0,.48,3.7L28,54.47,14.78,43.36A18.917,18.917,0,0,1,8,28.82V14.65l20-6.4,20,6.4V28.82a18.994,18.994,0,0,1-.3,3.22c-.23-.02-.46-.04-.7-.04a14.591,14.591,0,0,0-2.31.2A16.961,16.961,0,0,0,30.13,12.14ZM26,38H24a1,1,0,0,1-1-1V31a1,1,0,0,0-1-1,1,1,0,0,1-1-1V27a.949.949,0,0,1,.31-.71A.928.928,0,0,1,22,26a3.009,3.009,0,0,0,3-3V21a3,3,0,0,0-3-3,1,1,0,0,1-1-1V15.74a14.816,14.816,0,0,1,5.13-1.62q.435-.06.87-.09V19a3.009,3.009,0,0,0,3,3h2a1,1,0,0,1,1,1v2a1,1,0,0,1-1,1H28a3.009,3.009,0,0,0-3,3v4a3.009,3.009,0,0,0,3,3h2a1,1,0,0,1,1,1,2.954,2.954,0,0,0,.87,2.11,3,3,0,0,0,1.89.87,14.639,14.639,0,0,0-1.28,3.32,15,15,0,0,1-2.6.59c-.29.03-.59.06-.88.08V41A3.009,3.009,0,0,0,26,38Zm-5-6.17V37a3.009,3.009,0,0,0,3,3h2a1,1,0,0,1,1,1v2.97c-.29-.02-.58-.05-.88-.08A14.992,14.992,0,0,1,19,17.02,3,3,0,0,0,22,20a.949.949,0,0,1,.71.31A.928.928,0,0,1,23,21v2a1,1,0,0,1-1,1,3,3,0,0,0-3,3v2A3.014,3.014,0,0,0,21,31.83Zm12.29,5.86A.928.928,0,0,1,33,37a3.009,3.009,0,0,0-3-3H28a1,1,0,0,1-1-1V29a1,1,0,0,1,1-1h4a3.009,3.009,0,0,0,3-3V23a3.009,3.009,0,0,0-3-3H30a1,1,0,0,1-1-1V14.03c.3.02.59.05.88.09A15.006,15.006,0,0,1,43,29a14.56,14.56,0,0,1-.47,3.68,15.049,15.049,0,0,0-7.61,5.47A2.906,2.906,0,0,0,34,38,.949.949,0,0,1,33.29,37.69ZM47,60A13,13,0,1,1,60,47,13.012,13.012,0,0,1,47,60Z" style="fill:#57a4ff"/></g></svg>
