<svg height="512" viewBox="0 0 64 64" width="512" xmlns="http://www.w3.org/2000/svg"><g id="mask-masked-face_mask-man-masking" data-name="mask-masked-face mask-man-masking"><path d="m44 19v-1h-24v1h-4a16 16 0 1 1 32 0z" fill="#bddbff"/><path d="m32 38a11.967 11.967 0 0 0 11.96-11h-23.92a11.967 11.967 0 0 0 11.96 11z" fill="#bddbff"/><g fill="#57a4ff"><path d="m26 21h4v2h-4z"/><path d="m34 21h4v2h-4z"/><path d="m52 42h-14v-4.48a13.013 13.013 0 0 0 7-11.52v-6h3a1 1 0 0 0 1-1 17 17 0 0 0 -34 0 1 1 0 0 0 1 1h3v6a13.013 13.013 0 0 0 7 11.52v4.48h-14a5 5 0 0 0 -5 5v14a1 1 0 0 0 1 1h48a1 1 0 0 0 1-1v-14a5 5 0 0 0 -5-5zm-33-24h-1.97a15 15 0 0 1 29.94 0h-1.97a1 1 0 0 0 -1-1h-24a1 1 0 0 0 -1 1zm2 1h22v7h-22zm.19 9h21.62a10.992 10.992 0 0 1 -21.62 0zm14.81 10.36v3.64a4.009 4.009 0 0 1 -6.83 2.84 4.045 4.045 0 0 1 -1.17-2.84v-3.64a12.82 12.82 0 0 0 8 0zm19 21.64h-46v-13a3.009 3.009 0 0 1 3-3h14.35a5.961 5.961 0 0 0 5.65 4 6 6 0 0 0 5.65-4h14.35a3.009 3.009 0 0 1 3 3z"/></g></g></svg>